<svg width="90" height="92" viewBox="0 0 90 92" fill="none" xmlns="http://www.w3.org/2000/svg">
<rect width="90" height="92" rx="11" fill="#FFCDF1"/>
<path fill-rule="evenodd" clip-rule="evenodd" d="M44.1075 25.0435C41.0548 25.2836 38.2399 26.0463 34.4678 27.6556C26.9658 30.8561 21.5185 35.3279 19.6165 39.8474C19.1982 40.8412 19.0001 41.7069 19 42.5413C18.9999 43.3594 19.225 44.1767 19.7101 45.1199C20.2585 46.1863 20.9153 47.0278 22.0954 48.1765C23.3304 49.3786 24.4519 50.2483 26.8996 51.902C29.4249 53.6081 30.5086 54.3815 30.5086 54.4776C30.5086 54.4983 30.1807 54.6801 29.78 54.8815C27.7056 55.9242 25.9127 57.0225 24.4227 58.1636C23.7324 58.6924 22.5949 59.794 22.1795 60.3364C21.6225 61.0635 21.2233 61.9602 21.0114 62.9602C20.874 63.6082 20.8987 64.7245 21.0632 65.3057C21.3566 66.3422 22.031 67.2556 22.7582 67.6014C23.1288 67.7776 24.0666 67.9538 24.828 67.9904C27.974 68.1414 31.1311 66.5 33.0233 63.7299C33.5871 62.9044 34.0234 61.9095 34.296 60.8274C34.7634 58.9721 34.6588 56.718 34.038 55.27C33.9591 55.086 33.8907 54.9063 33.886 54.8707C33.8775 54.8056 34.8513 54.2277 36.2174 53.4873C37.1643 52.9741 37.1162 52.9885 37.0222 53.2457C36.7797 53.9099 36.516 55.2051 36.407 56.2676C36.3261 57.057 36.3711 58.2395 36.5074 58.9025C36.7937 60.2953 37.5028 61.7977 38.124 62.3277C38.6628 62.7875 39.6865 62.9091 40.3858 62.5965C40.7665 62.4263 41.3055 61.8517 41.6622 61.2358C42.0399 60.5838 42.5692 59.5104 43.0531 58.4153C43.2528 57.9633 43.4217 57.5988 43.4285 57.6054C43.4352 57.6119 43.4171 57.8204 43.3882 58.0687C43.3149 58.6985 43.3575 60.0064 43.4658 60.4559C43.6364 61.1632 43.9652 61.6574 44.4042 61.8662C44.5435 61.9324 44.7048 61.9593 44.9682 61.9602C45.4688 61.9618 45.7874 61.8046 46.3218 61.2923C46.8005 60.8332 47.1377 60.3982 47.467 59.8146C47.6017 59.5758 47.8882 59.0686 48.1036 58.6874C49.6007 56.0383 50.883 53.4211 52.1247 50.4802L52.5124 49.5619L52.6687 50.2413C52.9697 51.5493 53.2727 52.4164 53.7549 53.3491C53.8798 53.5907 54.0536 53.9408 54.141 54.127L54.2999 54.4658L54.0133 54.844C53.8557 55.052 53.6539 55.3186 53.5649 55.4364C53.4758 55.5543 52.7941 56.3608 52.05 57.2288C50.5028 59.0334 50.2614 59.3356 50.102 59.6669C49.7978 60.2992 49.967 60.8047 50.5686 61.0613C50.8079 61.1634 51.733 61.2003 52.2565 61.1287C53.7248 60.9279 55.3284 60.229 56.2751 59.3772C57.6953 58.0995 57.9949 56.3433 57.166 54.1543L56.9651 53.6237L57.4019 52.9891C58.3165 51.6601 59.2436 50.1329 60.0349 48.6518C60.2662 48.2188 60.4659 47.8962 60.4788 47.9349C60.4917 47.9735 60.5386 48.1772 60.583 48.3875C60.7244 49.0569 61.0521 50.1892 61.2332 50.6338C61.3295 50.8704 61.5492 51.3379 61.7214 51.6727C61.8935 52.0075 62.0344 52.3095 62.0344 52.3437C62.0344 52.378 61.8351 52.5765 61.5915 52.7849C60.2683 53.9169 59.1889 55.4378 58.8101 56.7039C58.6374 57.2808 58.5925 58.0435 58.7108 58.3895C58.8287 58.7345 59.0274 58.9774 59.3164 59.1301C59.8463 59.4101 60.3265 59.3827 61.3459 59.0143C62.4992 58.5975 63.3104 58.1266 64.0914 57.4208C64.8274 56.7557 65.3288 55.9981 65.499 55.2939C65.6487 54.6745 65.5692 53.8115 65.2779 52.8926C65.1967 52.6365 65.1287 52.4106 65.1268 52.3907C65.117 52.2872 66.3688 51.9242 67.2294 51.7809C68.5989 51.5529 70.6338 51.6243 72.0676 51.9507C74.563 52.5188 76.2735 53.9451 76.662 55.7818C76.7586 56.2387 76.7597 56.5685 76.6658 56.9553C76.5949 57.2478 76.4018 57.6609 76.203 57.9454C76.0102 58.2214 75.53 58.6539 75.111 58.929C74.8779 59.082 74.6738 59.241 74.6575 59.2823C74.6105 59.4011 74.7092 59.5902 74.8338 59.6206C75.262 59.7251 76.2871 59.1836 76.9457 58.5052C77.9839 57.4357 78.2689 55.9495 77.7404 54.3619C77.0925 52.4157 75.3029 50.8325 72.9615 50.134C71.8478 49.8018 70.7895 49.6754 69.4631 49.7165C67.7845 49.7685 66.3946 50.0676 64.8956 50.6993L64.4418 50.8907L64.0563 50.1409C63.4555 48.9726 63.3271 48.622 63.2096 47.8294C63.1307 47.2975 63.1137 47.0008 63.1332 46.4995C63.1614 45.7778 63.2543 45.3529 63.6334 44.2119C63.8857 43.4527 63.8836 43.3444 63.613 43.1571C63.3229 42.9564 62.9541 42.9002 62.1099 42.9282C61.2865 42.9555 60.709 43.0602 60.3914 43.2398C60.1937 43.3516 60.0786 43.6338 59.793 44.7077C59.6704 45.1689 59.4895 45.7339 59.3911 45.9632C59.1541 46.5152 58.384 47.9826 57.7549 49.0805C57.3366 49.8107 56.1574 51.787 56.1055 51.8449C56.0805 51.8729 55.541 50.7432 55.4372 50.4453C55.2548 49.9222 55.1365 48.9438 55.1652 48.1963C55.1944 47.4373 55.2651 47.1128 55.6526 45.9574C55.9381 45.106 55.9359 45.0628 55.5951 44.8396C55.3135 44.6552 55.0699 44.6119 54.3374 44.6159C53.546 44.6204 52.8928 44.7228 52.5086 44.9025C52.2197 45.0377 52.2267 45.0233 51.9501 46.0455C51.7474 46.7943 51.6274 47.0903 50.6613 49.2239C48.196 54.6682 46.6864 57.8216 46.2929 58.3496C46.1546 58.535 46.1309 58.5494 46.0874 58.4738C45.999 58.3202 46.0756 57.0973 46.2132 56.4649C46.4063 55.5772 46.7442 54.2483 47.1746 52.6836C47.6434 50.9793 47.6495 50.9494 47.5769 50.7357C47.4564 50.3806 46.8922 50.064 46.391 50.0701C46.1689 50.0729 45.9105 50.1695 45.7425 50.3127C45.695 50.3532 45.6475 50.3775 45.6369 50.3667C45.6263 50.3559 45.6393 50.218 45.6659 50.0603C45.6924 49.9026 45.7041 49.4402 45.6918 49.0327C45.6681 48.2424 45.6027 47.9634 45.3387 47.5256C44.9025 46.8022 43.9323 46.5622 42.8226 46.9031C41.5434 47.296 39.9084 48.4873 38.8523 49.796L38.5256 50.2008L36.4475 51.3037C35.3045 51.9102 33.9966 52.6054 33.5411 52.8485L32.7127 53.2905L32.1882 52.7986C31.4479 52.1045 30.6561 51.4626 28.9594 50.181C27.1477 48.8127 26.4157 48.214 25.7069 47.5208C24.5375 46.3772 23.8581 45.3159 23.5632 44.1722C23.411 43.582 23.4126 42.4411 23.5667 41.7349C23.9243 40.0953 24.8483 38.6098 26.5211 36.9848C28.3833 35.176 30.7889 33.5598 34.1852 31.8361C37.8604 29.9708 41.2198 28.9141 44.5747 28.5682C45.4507 28.4778 47.3916 28.4908 48.165 28.5923C50.0218 28.8357 51.4482 29.4221 52.2246 30.2613C53.022 31.1232 53.1882 32.6185 52.6587 34.1682C51.922 36.3249 49.7793 38.6712 47.1002 40.255C44.4448 41.8248 40.9673 42.8215 38.1564 42.8183C36.1495 42.8161 34.6042 42.3021 33.4542 41.2541C33.1873 41.0109 32.9285 40.8118 32.8792 40.8118C32.8299 40.8118 32.7383 40.8582 32.6758 40.9148C32.5065 41.068 32.5588 41.4335 32.8243 41.9543C32.9938 42.2866 33.1178 42.4432 33.5275 42.8421C34.5617 43.8488 35.7342 44.3965 37.4235 44.6619C38.1739 44.7798 40.1292 44.8071 41.132 44.7137C43.4315 44.4995 45.859 43.8871 47.8712 43.0136C48.8865 42.5729 50.1143 41.8338 51.1006 41.0696C51.7234 40.5871 52.9531 39.3913 53.4525 38.7825C54.6448 37.3294 55.5215 35.6609 55.9148 34.0965C56.4469 31.9801 56.1506 29.9215 55.1089 28.4982C54.4192 27.5558 53.537 26.8696 52.2225 26.253C50.8305 25.6 49.1764 25.1962 47.2551 25.0403C46.5748 24.9852 44.8274 24.9869 44.1075 25.0435ZM44.0405 49.1349C44.1355 49.2272 44.1428 49.2721 44.1167 49.6015C44.0502 50.4389 43.3394 52.6294 42.2618 55.3178C41.2841 57.7569 40.8637 58.6134 40.4262 59.0578C40.1832 59.3046 40.0114 59.3261 39.8523 59.1295C39.2678 58.4075 39.2401 55.9934 39.7947 54.1229C40.2363 52.6337 41.2964 50.7366 42.1522 49.9039C42.8653 49.2099 43.7479 48.8505 44.0405 49.1349ZM63.0242 53.7764C63.1112 54.1116 63.0986 54.8102 62.9982 55.2191C62.861 55.7783 62.6505 56.1314 62.1832 56.5861C61.8395 56.9205 61.6782 57.036 61.2892 57.2263C61.0146 57.3607 60.7813 57.4462 60.7359 57.4292C60.4407 57.3191 61.1446 55.5345 61.8305 54.6538C62.1482 54.246 62.8399 53.5255 62.9136 53.5255C62.9386 53.5255 62.9883 53.6384 63.0242 53.7764ZM32.081 56.1602C32.4741 57.9893 32.1969 59.7412 31.2746 61.2581C30.462 62.5944 29.3624 63.6012 28.0249 64.2335C27.3182 64.5676 26.8154 64.709 26.2096 64.7442C25.5815 64.7806 25.252 64.6855 24.9478 64.3801C24.655 64.0862 24.5801 63.8361 24.5887 63.1802C24.5938 62.7904 24.6245 62.5823 24.726 62.2482C25.0064 61.3255 25.6036 60.3621 26.351 59.6265C27.3719 58.6216 29.0527 57.4085 31.0988 56.1995C31.5722 55.9198 31.965 55.6948 31.9717 55.6995C31.9784 55.7042 32.0276 55.9115 32.081 56.1602ZM55.0983 56.4267C55.0192 57.0387 54.7187 57.603 54.1658 58.1773C53.5932 58.7722 52.531 59.4654 52.3153 59.3849C52.2213 59.3499 52.2271 59.3428 53.1999 58.3003C53.6022 57.8692 54.1981 57.1886 54.5241 56.7879C54.8501 56.3872 55.1226 56.065 55.1297 56.0718C55.1367 56.0787 55.1226 56.2384 55.0983 56.4267Z" fill="#E935B6"/>
</svg>
