<svg width="90" height="92" viewBox="0 0 90 92" fill="none" xmlns="http://www.w3.org/2000/svg">
<rect width="90" height="92" rx="11" fill="#E6FFDF"/>
<path d="M53.5195 21.502C55.7279 21.5047 57.3385 21.511 58.5273 21.5234C60.8835 21.548 61.6263 21.5942 62.0967 21.6914L62.4189 21.7637C65.7269 22.563 68.2253 24.9902 69.1699 28.332L69.4355 29.2715L69.4541 29.3379L69.4551 29.4062L69.4922 45.1484L69.5 51.9023C69.4993 53.8998 69.4955 55.6354 69.4883 57.083C69.4758 59.5993 69.4541 61.2745 69.4209 61.9307L69.4053 62.1484C69.0113 66.0571 66.5645 69.0689 62.9111 70.1484L62.5537 70.2471C62.0369 70.3792 61.628 70.4373 59.3857 70.4678C57.1333 70.4984 52.984 70.5 44.9492 70.5C36.9179 70.5 32.7688 70.4984 30.5156 70.4678C28.5524 70.4411 27.9931 70.393 27.5381 70.293L27.3457 70.2471C24.2712 69.4608 21.7279 66.9898 20.834 63.9512L20.7529 63.6553C20.6209 63.1391 20.5627 62.7291 20.5322 60.4863C20.5016 58.2336 20.5 54.0849 20.5 46.0547C20.5 37.9932 20.5013 33.8454 20.5322 31.5977C20.563 29.3579 20.6227 28.9593 20.7559 28.4307L20.8564 28.0635C21.4035 26.2366 22.5717 24.4984 24.0088 23.415L24.1924 23.2822C24.6368 22.9724 25.1976 22.6604 25.75 22.3994C26.3777 22.103 27.0374 21.8524 27.5391 21.7529L28.4443 21.5742L28.5518 21.5625C28.5745 21.5615 28.6031 21.5604 28.6357 21.5596C28.7021 21.5579 28.7949 21.5563 28.9111 21.5547C29.1444 21.5514 29.4797 21.5481 29.9043 21.5449C30.7538 21.5385 31.9662 21.5319 33.4512 21.5264C36.4213 21.5152 40.4844 21.5068 44.9238 21.5029L53.5195 21.502ZM39.1885 25.3086C37.2461 25.3118 35.4725 25.3175 33.96 25.3252C32.4477 25.3329 31.1968 25.3432 30.2979 25.3545C29.8483 25.3601 29.4878 25.3658 29.2275 25.3721C29.0972 25.3752 28.9933 25.3787 28.917 25.3818C28.8789 25.3834 28.8491 25.3843 28.8271 25.3857L28.8008 25.3877C26.7887 25.6529 24.9542 27.3239 24.4424 29.3486L24.3975 29.5459C24.3969 29.5502 24.3939 29.5731 24.3896 29.624C24.3849 29.68 24.3798 29.7559 24.375 29.8535C24.3653 30.0489 24.356 30.32 24.3477 30.6719C24.3309 31.3755 24.3174 32.3909 24.3066 33.7441C24.285 36.4499 24.2754 40.4994 24.2754 46.0957C24.2754 54.8215 24.2674 58.9629 24.3477 61.1016C24.3879 62.1745 24.4499 62.7042 24.5332 63.043C24.6126 63.3655 24.7073 63.5136 24.8975 63.8887L25.0273 64.124C25.7276 65.2927 27.1573 66.3319 28.4902 66.6084L28.5674 66.6162C28.6236 66.6208 28.7003 66.6262 28.7988 66.6309C28.9957 66.6402 29.2694 66.6486 29.625 66.6562C30.336 66.6716 31.3635 66.6834 32.7363 66.6914C35.4815 66.7075 39.5995 66.7087 45.3105 66.6973L61.5068 66.665L62.1064 66.4385L62.3232 66.3506C63.4056 65.8817 64.3987 65.0075 64.9688 64.0146L65.207 63.6006C65.2665 63.4872 65.3107 63.381 65.3516 63.2295C65.4386 62.9064 65.504 62.3837 65.5469 61.2969C65.6322 59.1338 65.624 54.9101 65.624 45.9912C65.624 38.6991 65.6185 34.6262 65.5918 32.3027C65.5784 31.1398 65.5599 30.423 65.5342 29.9629C65.5146 29.6127 65.4919 29.4304 65.4707 29.3242L65.4502 29.2402C64.9509 27.5572 63.8986 26.3769 62.2881 25.7012L61.959 25.5723L61.2715 25.3232L45.4316 25.3076L39.1885 25.3086ZM60.5908 52.7324V56.0244H44.3887V54.459C44.3887 54.157 44.3985 53.8693 44.4141 53.6475C44.4218 53.5378 44.4319 53.4361 44.4443 53.3535C44.4504 53.3134 44.4585 53.2661 44.4707 53.2207C44.4767 53.1983 44.486 53.1661 44.501 53.1309C44.5119 53.1053 44.545 53.0301 44.6162 52.959C44.6783 52.897 44.7414 52.8666 44.7637 52.8564C44.7928 52.8432 44.8177 52.8353 44.832 52.8311C44.8609 52.8225 44.8861 52.8185 44.8984 52.8164C44.9252 52.8118 44.9512 52.8084 44.9697 52.8066C45.0095 52.8029 45.0593 52.7996 45.1143 52.7969C45.2264 52.7913 45.3851 52.7861 45.582 52.7812C45.977 52.7715 46.5409 52.7632 47.2305 52.7559C48.6103 52.7413 50.5011 52.7324 52.5703 52.7324H60.5908ZM30.1357 35.5107L30.209 35.5312L37.7139 38.6572L45.0811 41.7334L45.3887 41.8613V42.1953L45.3867 44.6074V44.9404L45.0791 45.0684L37.7148 48.1445C33.6837 49.8283 30.2913 51.2428 30.2041 51.2734V51.2725C30.0579 51.3235 29.901 51.3058 29.7734 51.2314C29.6677 51.1697 29.6105 51.0863 29.585 51.0439C29.5341 50.9596 29.5133 50.8735 29.5039 50.832C29.4816 50.7331 29.4695 50.6105 29.4619 50.4863C29.4461 50.2281 29.4433 49.8584 29.4541 49.4043L29.4883 47.9785L29.4961 47.6543L29.7959 47.5293L34.9922 45.3555L39.6143 43.4121C39.2623 43.2525 38.7821 43.0431 38.1357 42.7695L35.248 41.5635L29.7422 39.2783L29.4346 39.1514L29.4336 38.8184L29.4307 37.3906C29.4298 36.9667 29.441 36.5991 29.4619 36.335C29.4721 36.2066 29.4864 36.0846 29.5068 35.9883C29.5156 35.947 29.5325 35.8719 29.5693 35.7979C29.5859 35.7647 29.6297 35.6833 29.7178 35.6133C29.8153 35.5359 29.9672 35.477 30.1357 35.5107Z" fill="#68B62A" stroke="#68B62A"/>
</svg>
