<svg width="90" height="92" viewBox="0 0 90 92" fill="none" xmlns="http://www.w3.org/2000/svg">
<rect width="90" height="92" rx="11" fill="#FFDFDF"/>
<path fill-rule="evenodd" clip-rule="evenodd" d="M48.0362 23.0761C47.8596 23.1619 47.8523 23.1731 47.9995 23.1331C48.2043 23.0774 48.2076 23.0773 49.1554 23.097L49.834 23.1111L50.1582 23.7537C50.5225 24.4756 50.3108 24.2887 52.7536 26.0441C54.3783 27.2115 67.7058 26.6146 67.6882 26.7366C67.6804 26.7907 53.911 30.1196 53.5677 30.1558C53.4821 30.1648 53.2477 30.864 51.8891 35.1612L50.5697 39.3342L50.8389 40.3658C50.987 40.9331 66.3378 67.5201 66.3171 67.5408C66.2772 67.5807 49.0732 41.6133 48.5134 41.6158C48.1931 41.6173 48.1501 41.6471 47.1181 42.5831C43.3133 46.0341 37.0294 51.9405 37.0187 52.0757C36.9935 52.3964 41.4467 69.194 41.3534 69.2299C41.2999 69.2504 34.1008 53.4046 31.0197 53.8822C25.8003 54.691 25.4094 54.742 25.2992 54.628C25.2342 54.5607 24.9094 53.7365 24.5775 52.7965C24.2455 51.8565 23.8971 50.8987 23.8034 50.668C23.6344 50.2528 23.63 50.2489 23.3501 50.2679C23.1947 50.2784 22.9459 50.3051 22.7972 50.3273C22.5351 50.3664 22.5261 50.3602 22.5034 50.1233C22.4747 49.8241 21.9964 59.8521 22 60.6763C22.0052 61.8335 22.233 63.1698 22.6279 64.3588C23.0898 65.7495 23.6058 66.5948 24.5707 67.5408C25.9824 68.925 27.7654 69.6084 30.5005 69.8138C31.563 69.8936 31.957 69.8702 48.8941 68.7181C58.4134 68.0706 66.2537 67.5408 66.3171 67.5408C66.4049 67.5408 66.4323 67.4611 66.4323 67.2055C66.4323 67.0211 67.0128 59.2964 67.7222 50.0395C68.9408 34.1386 69.0102 33.1276 68.9783 31.74C68.934 29.8191 68.6892 28.6586 68.0644 27.4072C67.0476 25.3707 65.3817 24.1165 62.687 23.3586L61.9894 23.1625L55.431 23.1078C51.8238 23.0777 48.7339 23.0342 48.5646 23.0111C48.3658 22.984 48.1784 23.007 48.0362 23.0761ZM47.3386 23.3314C47.278 23.3705 47.2615 23.4026 47.3019 23.4026C47.3423 23.4026 47.4249 23.3705 47.4855 23.3314C47.5461 23.2923 47.5626 23.2602 47.5222 23.2602C47.4818 23.2602 47.3992 23.2923 47.3386 23.3314ZM46.7511 23.5517C46.6905 23.5909 46.674 23.6229 46.7144 23.6229C46.7548 23.6229 46.8374 23.5909 46.898 23.5517C46.9586 23.5126 46.9751 23.4806 46.9347 23.4806C46.8943 23.4806 46.8117 23.5126 46.7511 23.5517ZM46.1636 23.772C46.103 23.8112 46.0865 23.8432 46.1269 23.8432C46.1673 23.8432 46.2499 23.8112 46.3105 23.772C46.3711 23.7329 46.3876 23.7009 46.3472 23.7009C46.3068 23.7009 46.2242 23.7329 46.1636 23.772ZM45.5761 23.9923C45.5155 24.0315 45.499 24.0635 45.5394 24.0635C45.5798 24.0635 45.6624 24.0315 45.723 23.9923C45.7836 23.9532 45.8001 23.9212 45.7597 23.9212C45.7193 23.9212 45.6367 23.9532 45.5761 23.9923ZM44.9886 24.2126C44.928 24.2518 44.9115 24.2838 44.9519 24.2838C44.9923 24.2838 45.0749 24.2518 45.1355 24.2126C45.1961 24.1735 45.2126 24.1415 45.1722 24.1415C45.1318 24.1415 45.0492 24.1735 44.9886 24.2126ZM46.3472 24.2768C40.5326 25.3392 32.6645 31.0956 27.8918 37.7788C25.8019 40.7053 24.3863 43.6555 23.8299 46.2439C23.6087 47.2737 23.5883 49.1835 23.7907 49.9158C24.2811 51.6889 25.4959 52.8639 27.1702 53.1842C30.2287 53.7694 34.9624 51.903 39.848 48.1857C46.2319 43.3282 51.1041 36.9279 52.479 31.5931C53.4221 27.9339 52.421 25.236 49.8045 24.3854C49.0004 24.1239 47.4499 24.0752 46.3472 24.2768ZM44.4011 24.433C44.3405 24.4721 44.324 24.5041 44.3644 24.5041C44.4048 24.5041 44.4874 24.4721 44.548 24.433C44.6086 24.3938 44.6251 24.3618 44.5847 24.3618C44.5443 24.3618 44.4617 24.3938 44.4011 24.433ZM43.8136 24.6533C43.753 24.6924 43.7365 24.7244 43.7769 24.7244C43.8173 24.7244 43.8999 24.6924 43.9605 24.6533C44.0211 24.6141 44.0376 24.5821 43.9972 24.5821C43.9568 24.5821 43.8742 24.6141 43.8136 24.6533ZM43.2261 24.8736C43.1655 24.9127 43.149 24.9447 43.1894 24.9447C43.2298 24.9447 43.3124 24.9127 43.373 24.8736C43.4336 24.8344 43.4501 24.8024 43.4097 24.8024C43.3693 24.8024 43.2867 24.8344 43.2261 24.8736ZM42.6386 25.0939C42.578 25.133 42.5615 25.1651 42.6019 25.1651C42.6423 25.1651 42.7249 25.133 42.7855 25.0939C42.8461 25.0548 42.8626 25.0227 42.8222 25.0227C42.7818 25.0227 42.6992 25.0548 42.6386 25.0939ZM41.9409 25.3535C41.7573 25.442 41.7512 25.4521 41.9042 25.4147C42.1123 25.3639 42.3462 25.2447 42.2347 25.2464C42.1943 25.2469 42.0621 25.2951 41.9409 25.3535ZM41.3534 25.5738C41.1698 25.6623 41.1637 25.6724 41.3167 25.6351C41.5248 25.5842 41.7587 25.465 41.6472 25.4667C41.6068 25.4673 41.4746 25.5154 41.3534 25.5738ZM40.7659 25.7941C40.5823 25.8826 40.5762 25.8928 40.7292 25.8554C40.9373 25.8046 41.1712 25.6853 41.0597 25.687C41.0193 25.6876 40.8871 25.7357 40.7659 25.7941ZM40.1784 26.0144C39.9948 26.1029 39.9887 26.1131 40.1417 26.0757C40.3498 26.0249 40.5837 25.9056 40.4722 25.9073C40.4318 25.9079 40.2996 25.9561 40.1784 26.0144ZM39.5909 26.2348C39.4073 26.3232 39.4012 26.3334 39.5542 26.296C39.7623 26.2452 39.9962 26.1259 39.8847 26.1276C39.8443 26.1282 39.7121 26.1764 39.5909 26.2348ZM39.0034 26.4551C38.8198 26.5436 38.8137 26.5537 38.9667 26.5163C39.1748 26.4655 39.4087 26.3462 39.2972 26.3479C39.2568 26.3485 39.1246 26.3967 39.0034 26.4551ZM38.4159 26.6754C38.2323 26.7639 38.2262 26.774 38.3792 26.7366C38.5873 26.6858 38.8212 26.5665 38.7097 26.5682C38.6693 26.5688 38.5371 26.617 38.4159 26.6754ZM35.9136 28.8598C32.3657 32.1891 29.3456 35.0111 28.8318 35.4772C28.5696 35.7152 28.4095 35.8804 28.4761 35.8444C28.6159 35.769 29.1124 35.3091 34.3218 30.43C37.74 27.2286 38.2137 26.7764 38.1405 26.7852C38.1305 26.7863 37.1284 27.7199 35.9136 28.8598ZM28.228 36.1279C28.0674 36.3756 27.9233 36.6706 28.0038 36.5869C28.1068 36.4799 28.4097 35.9627 28.3695 35.9627C28.3506 35.9627 28.2869 36.037 28.228 36.1279ZM27.7675 36.9173C27.7049 37.0385 27.6701 37.1377 27.6903 37.1377C27.7105 37.1377 27.7783 37.0385 27.8409 36.9173C27.9036 36.7962 27.9383 36.697 27.9181 36.697C27.8979 36.697 27.8301 36.7962 27.7675 36.9173ZM27.4003 37.5783C27.2979 37.7802 27.2308 37.9455 27.2509 37.9455C27.2711 37.9455 27.3714 37.7802 27.4738 37.5783C27.5761 37.3763 27.6433 37.2111 27.6231 37.2111C27.6029 37.2111 27.5027 37.3763 27.4003 37.5783ZM26.9964 38.3127C26.914 38.4742 26.863 38.6064 26.8832 38.6064C26.9034 38.6064 26.9875 38.4742 27.0698 38.3127C27.1522 38.1511 27.2032 38.0189 27.183 38.0189C27.1628 38.0189 27.0788 38.1511 26.9964 38.3127ZM26.5191 39.1939C26.4167 39.3959 26.3495 39.5611 26.3697 39.5611C26.3899 39.5611 26.4901 39.3959 26.5925 39.1939C26.6949 38.992 26.7621 38.8267 26.7419 38.8267C26.7217 38.8267 26.6214 38.992 26.5191 39.1939ZM26.0417 40.0752C25.9194 40.3175 25.8358 40.5158 25.856 40.5158C25.8762 40.5158 25.9928 40.3175 26.1152 40.0752C26.2375 39.8328 26.3211 39.6345 26.3009 39.6345C26.2807 39.6345 26.1641 39.8328 26.0417 40.0752ZM25.5277 41.0299C25.4053 41.2722 25.3217 41.4705 25.3419 41.4705C25.3621 41.4705 25.4788 41.2722 25.6011 41.0299C25.7234 40.7875 25.807 40.5892 25.7868 40.5892C25.7666 40.5892 25.65 40.7875 25.5277 41.0299ZM24.9402 42.1314C24.8178 42.3738 24.7342 42.572 24.7544 42.572C24.7746 42.572 24.8913 42.3738 25.0136 42.1314C25.1359 41.8891 25.2195 41.6908 25.1993 41.6908C25.1791 41.6908 25.0625 41.8891 24.9402 42.1314ZM24.3894 43.1595C24.287 43.3615 24.2198 43.5267 24.24 43.5267C24.2602 43.5267 24.3604 43.3615 24.4628 43.1595C24.5652 42.9576 24.6324 42.7924 24.6122 42.7924C24.592 42.7924 24.4918 42.9576 24.3894 43.1595ZM23.8019 44.2611C23.6595 44.5438 23.5595 44.7752 23.5797 44.7752C23.5999 44.7752 23.7329 44.5438 23.8753 44.2611C24.0177 43.9784 24.1177 43.747 24.0975 43.747C24.0773 43.747 23.9443 43.9784 23.8019 44.2611ZM23.1777 45.4361C23.0553 45.6784 22.9717 45.8767 22.9919 45.8767C23.0121 45.8767 23.1288 45.6784 23.2511 45.4361C23.3734 45.1938 23.457 44.9955 23.4368 44.9955C23.4166 44.9955 23.3 45.1938 23.1777 45.4361ZM22.6239 46.47C22.52 46.6752 22.4451 46.8689 22.4575 46.9004C22.4699 46.932 22.5691 46.7641 22.6779 46.5274C22.9209 45.999 22.883 45.9588 22.6239 46.47ZM22.6122 47.6392C22.6122 47.8614 22.6259 47.9522 22.6427 47.8412C22.6596 47.7301 22.6596 47.5483 22.6427 47.4373C22.6259 47.3262 22.6122 47.4171 22.6122 47.6392ZM22.5424 48.9611C22.5424 49.3044 22.5551 49.4448 22.5705 49.2732C22.586 49.1016 22.586 48.8206 22.5705 48.649C22.5551 48.4774 22.5424 48.6178 22.5424 48.9611ZM36.6764 52.0222C36.7294 52.0434 36.7927 52.0408 36.8171 52.0164C36.8415 51.992 36.7982 51.9747 36.7208 51.9778C36.6352 51.9814 36.6178 51.9988 36.6764 52.0222ZM36.3092 52.0956C36.3622 52.1169 36.4256 52.1142 36.4499 52.0898C36.4743 52.0655 36.431 52.0481 36.3536 52.0513C36.268 52.0548 36.2506 52.0722 36.3092 52.0956Z" fill="#F96C6C"/>
</svg>
