<svg width="90" height="92" viewBox="0 0 90 92" fill="none" xmlns="http://www.w3.org/2000/svg">
<rect width="90" height="92" rx="11" fill="#D6F8D7"/>
<g clip-path="url(#clip0_203_35)">
<path fill-rule="evenodd" clip-rule="evenodd" d="M28.4706 21.0852C28.6138 21.3671 45.4824 50.9219 45.4998 50.9215C45.5212 50.9212 62.2421 21.63 62.459 21.2129L62.5445 21.0487H57.2991C52.0834 21.0487 52.0535 21.0493 52.0229 21.1468C52.0061 21.2009 51.9687 21.2303 51.9401 21.2124C51.9114 21.1945 51.901 21.2015 51.9172 21.2277C51.9492 21.2801 51.2598 22.5258 51.2208 22.4862C51.2075 22.4729 51.1967 22.4912 51.1967 22.5271C51.1967 22.6134 50.0094 24.6995 49.9732 24.6767C49.9576 24.6671 49.9451 24.6874 49.9451 24.7217C49.9451 24.808 49.2882 25.967 49.2521 25.9445C49.236 25.9344 49.2229 25.9543 49.2229 25.9888C49.2229 26.0977 48.5611 27.2311 48.5145 27.2018C48.4899 27.1865 48.483 27.1956 48.4991 27.2219C48.5311 27.2742 47.8416 28.52 47.8026 28.4804C47.7895 28.467 47.7787 28.4853 47.7787 28.5213C47.7787 28.6075 46.5914 30.6937 46.555 30.6709C46.5396 30.6612 46.5269 30.6815 46.5269 30.7159C46.5269 30.8298 45.864 31.9574 45.8139 31.9287C45.7868 31.9131 45.7807 31.9183 45.8001 31.9401C45.8372 31.9817 45.5502 32.5497 45.4921 32.5497C45.4533 32.5497 45.3791 32.3507 45.3954 32.2902C45.4012 32.2681 45.3887 32.2609 45.3676 32.2742C45.3244 32.301 44.858 31.497 44.858 31.3957C44.858 31.3604 44.8473 31.3422 44.834 31.3556C44.7939 31.3963 44.1062 30.1488 44.1378 30.0926C44.1542 30.0636 44.1495 30.0564 44.1277 30.0764C44.0774 30.1226 43.3758 28.8949 43.4155 28.8301C43.4316 28.8037 43.4247 28.7948 43.4001 28.8101C43.3535 28.8392 42.6917 27.706 42.6917 27.5971C42.6917 27.5626 42.679 27.5424 42.6636 27.5521C42.6273 27.5747 41.44 25.4886 41.44 25.4023C41.44 25.3665 41.4291 25.3481 41.416 25.3615C41.377 25.401 40.6876 24.1554 40.7195 24.103C40.7356 24.0766 40.7288 24.0676 40.7041 24.083C40.6575 24.1121 39.9957 22.9789 39.9957 22.8699C39.9957 22.8355 39.9826 22.8156 39.9665 22.8256C39.9305 22.8482 39.2735 21.6892 39.2735 21.6028C39.2735 21.5684 39.2596 21.5491 39.2423 21.5598C39.2252 21.5706 39.1476 21.46 39.0699 21.3141L38.9286 21.049L33.6902 21.0489C30.8092 21.0487 28.4604 21.0652 28.4706 21.0852Z" fill="#34445C"/>
<path fill-rule="evenodd" clip-rule="evenodd" d="M17.0001 21.0364C17.0001 21.0566 17.0759 21.2003 17.1686 21.3556C17.2612 21.5111 17.337 21.6464 17.337 21.6562C17.337 21.6662 17.4692 21.9007 17.6308 22.1777C17.7924 22.4546 17.9738 22.769 18.0341 22.8761C18.0942 22.9833 18.2191 23.2026 18.3114 23.3634C18.4037 23.5243 18.928 24.4453 19.4763 25.4102C20.0248 26.3752 20.5368 27.2691 20.6142 27.3968C20.6917 27.5246 20.755 27.6401 20.755 27.6537C20.755 27.6672 20.8056 27.7601 20.8673 27.8601C21.0124 28.0948 21.2869 28.5668 21.4407 28.8459C21.5073 28.9665 21.6371 29.1967 21.7296 29.3576C21.8219 29.5184 22.346 30.4394 22.8945 31.4043C23.4428 32.3693 23.9548 33.2633 24.0324 33.3909C24.1097 33.5187 24.1731 33.6343 24.1731 33.6478C24.1731 33.6614 24.2242 33.7543 24.2864 33.8543C24.4549 34.1246 24.8952 34.8874 24.8952 34.9089C24.8952 34.9191 24.9786 35.0668 25.0804 35.2372C25.1823 35.4074 25.7378 36.3799 26.3151 37.3985C26.8922 38.4169 27.4154 39.332 27.4777 39.4321C27.5401 39.5321 27.5911 39.6258 27.5911 39.6404C27.5911 39.6548 27.6417 39.7484 27.7034 39.8484C27.8431 40.0742 28.1167 40.544 28.2777 40.8342C28.3957 41.0467 29.0855 42.2615 30.2287 44.2699C30.5339 44.806 30.8343 45.3263 30.8964 45.4264C30.9584 45.5264 31.0093 45.62 31.0093 45.6345C31.0093 45.649 31.0597 45.7426 31.1216 45.8425C31.2611 46.0684 31.5347 46.5381 31.6959 46.8283C31.981 47.3423 33.4354 49.8939 33.5643 50.1064C33.6418 50.2341 33.7053 50.3485 33.7053 50.3604C33.7053 50.3726 33.8319 50.597 33.987 50.8593C34.1419 51.1215 34.3234 51.4348 34.3903 51.5554C34.4571 51.676 34.5873 51.9064 34.6797 52.0672C34.772 52.2279 35.2963 53.1491 35.8446 54.114C36.3929 55.0788 36.9051 55.9728 36.9825 56.1006C37.06 56.2282 37.1233 56.3439 37.1233 56.3575C37.1233 56.371 37.1738 56.4639 37.2355 56.5637C37.3806 56.7984 37.6552 57.2706 37.809 57.5495C37.8755 57.6703 38.0053 57.9005 38.0977 58.0613C38.19 58.2222 38.7143 59.1432 39.2628 60.1081C39.8111 61.073 40.3231 61.9669 40.4006 62.0947C40.478 62.2224 40.5414 62.3381 40.5414 62.3516C40.5414 62.3652 40.5923 62.4581 40.6547 62.5579C40.8231 62.8284 41.2635 63.591 41.2635 63.6125C41.2635 63.6229 41.3468 63.7706 41.4487 63.9408C41.5506 64.111 42.1061 65.0837 42.6832 66.1021C43.2603 67.1206 43.7836 68.0358 43.846 68.1357C43.9084 68.2358 43.9594 68.3295 43.9594 68.344C43.9594 68.3586 44.0103 68.4522 44.0724 68.5522C44.1861 68.7348 44.4808 69.2433 44.6897 69.6169C45.5273 71.1158 45.4919 71.0705 45.6295 70.8172C45.6841 70.7166 45.8361 70.4481 45.9672 70.2201C46.0983 69.9924 46.2611 69.7072 46.3286 69.5866C46.3963 69.466 46.5969 69.1152 46.7745 68.8069C46.9521 68.4987 47.1581 68.1369 47.2324 68.0029C47.3067 67.8689 47.4997 67.5326 47.6613 67.2557C47.823 66.9787 47.9553 66.7426 47.9553 66.7309C47.9553 66.7191 48.006 66.6276 48.0681 66.5276C48.1677 66.3674 48.6754 65.4824 49.025 64.8595C49.0927 64.7389 49.2551 64.4539 49.386 64.226C49.5168 63.9982 49.6794 63.713 49.7473 63.5924C49.8153 63.4719 50.0275 63.0991 50.2189 62.764C50.4102 62.4289 50.616 62.0672 50.6763 61.96C50.7364 61.8527 50.9178 61.5385 51.0794 61.2615C51.241 60.9846 51.3733 60.7484 51.3733 60.7367C51.3733 60.7249 51.4241 60.6335 51.4863 60.5335C51.5859 60.3732 52.0935 59.4883 52.4431 58.8654C52.5108 58.7448 52.6731 58.4598 52.804 58.2318C52.9348 58.0041 53.0974 57.7189 53.1653 57.5983C53.2333 57.4777 53.4455 57.105 53.6369 56.7699C53.8283 56.4348 54.0342 56.073 54.0943 55.9658C54.1544 55.8585 54.336 55.5443 54.4976 55.2674C54.6592 54.9904 54.7914 54.7543 54.7914 54.7425C54.7914 54.7308 54.8421 54.6393 54.9043 54.5393C55.0039 54.3791 55.5116 53.4941 55.8612 52.8712C55.9288 52.7507 56.0913 52.4655 56.2221 52.2377C56.3529 52.0099 56.5152 51.7248 56.5828 51.6042C56.6503 51.4836 56.8815 51.0807 57.0965 50.7091C57.3114 50.3374 57.4874 50.0271 57.4874 50.0196C57.4874 50.0121 57.6498 49.728 57.8483 49.3885C58.047 49.0488 58.2094 48.7611 58.2094 48.749C58.2094 48.7369 58.2603 48.6452 58.3224 48.5452C58.4233 48.3829 58.9514 47.4619 59.279 46.8771C59.4835 46.512 60.2731 45.1323 60.5991 44.5704C60.7676 44.28 60.9054 44.0329 60.9054 44.0211C60.9054 44.0094 60.9562 43.9181 61.0184 43.8181C61.1191 43.6559 61.6467 42.736 61.975 42.15C62.0425 42.0293 62.2412 41.6812 62.4163 41.3763C62.5914 41.0713 62.7348 40.815 62.7348 40.8065C62.7348 40.798 62.8184 40.6527 62.9207 40.4837C63.0912 40.202 64.0697 38.4916 64.3234 38.032C64.3825 37.9248 64.5763 37.585 64.7539 37.2767C64.9316 36.9685 65.1323 36.6176 65.2002 36.4969C65.4151 36.1146 65.5104 35.947 65.7542 35.5224C65.885 35.2944 66.0473 35.0094 66.115 34.8888C66.1826 34.7682 66.3832 34.4173 66.5608 34.109C66.7385 33.8009 66.9445 33.439 67.0188 33.305C67.093 33.1709 67.2861 32.8347 67.4477 32.5577C67.6093 32.2809 67.7415 32.0446 67.7415 32.033C67.7415 32.0213 67.7924 31.9298 67.8545 31.8299C67.9541 31.6695 68.4617 30.7845 68.8113 30.1618C68.8791 30.041 69.0414 29.756 69.1722 29.5282C69.303 29.3003 69.4656 29.0153 69.5336 28.8947C69.6016 28.7741 69.8138 28.4012 70.0051 28.0661C70.1965 27.7312 70.4024 27.3692 70.4626 27.2621C70.5227 27.1549 70.7041 26.8406 70.8658 26.5636C71.0274 26.2868 71.1597 26.0505 71.1597 26.0388C71.1597 26.0271 71.2104 25.9357 71.2725 25.8357C71.3721 25.6753 71.8797 24.7903 72.2294 24.1675C72.2971 24.0469 72.4596 23.7618 72.5904 23.5341C72.721 23.3062 72.8838 23.0211 72.9517 22.9005C73.0197 22.7799 73.2319 22.407 73.4233 22.072C73.9215 21.1997 74 21.0576 74 21.027C74 21.0122 71.4383 21.0008 68.3072 21.0019L62.6144 21.0039L54.1415 35.8714C49.4813 44.0487 45.6295 50.8044 45.5819 50.8844L45.4953 51.0296L43.0785 46.7906C41.7492 44.459 37.8996 37.7034 34.5236 31.7779L28.3856 21.0045L22.6927 21.0022C19.5617 21.0009 17 21.0163 17.0001 21.0364Z" fill="#3CBB84"/>
<path fill-rule="evenodd" clip-rule="evenodd" d="M31.0175 21.0364C32.4652 21.0436 34.8482 21.0436 36.3131 21.0364C37.7781 21.0294 36.5937 21.0234 33.6811 21.0234C30.7686 21.0234 29.5698 21.0294 31.0175 21.0364ZM54.6553 21.0364C56.1029 21.0436 58.4859 21.0436 59.9508 21.0364C61.4157 21.0294 60.2313 21.0234 57.3187 21.0234C54.4062 21.0234 53.2076 21.0294 54.6553 21.0364Z" fill="#346867"/>
</g>
<defs>
<clipPath id="clip0_203_35">
<rect width="57" height="50" fill="white" transform="translate(17 21)"/>
</clipPath>
</defs>
</svg>
