<svg width="90" height="92" viewBox="0 0 90 92" fill="none" xmlns="http://www.w3.org/2000/svg">
<rect width="90" height="92" rx="11" fill="#DFF9FF"/>
<path d="M56.0059 22.0014C54.0634 21.9802 52.3659 22.2016 51.1183 22.4451C50.4946 22.5668 49.9767 22.6916 49.602 22.7937C49.5464 22.8087 49.5219 22.8272 49.4731 22.8412C48.3165 22.656 47.0873 22.5285 45.7298 22.5085C43.1493 22.4697 40.9176 23.0427 39.1325 23.9979C37.3684 23.4387 33.7236 22.4758 29.8725 22.6669C27.1955 22.7997 24.2622 23.5397 22.0968 25.6299C19.9314 27.7202 18.7908 30.958 19.0318 35.3587C19.0983 36.5731 19.4675 38.5466 20.0965 41.1104C20.7255 43.6743 21.6073 46.6901 22.7099 49.4292C23.8125 52.1683 25.0187 54.6321 26.9043 56.3059C27.847 57.1428 29.1477 57.8388 30.6791 57.7795C31.7519 57.7379 32.7288 57.3165 33.5668 56.6862C33.9748 57.176 34.3961 57.391 34.7928 57.5894C35.2928 57.8393 35.7894 57.9972 36.293 58.1123C37.1977 58.3189 38.7375 58.6016 40.5519 58.3182C41.1705 58.2216 41.8221 58.0278 42.4715 57.7637C42.4963 58.4266 42.5234 59.0729 42.5522 59.7285C42.6432 61.7994 42.6937 63.7218 43.3749 65.4011C43.4852 65.673 43.7895 67.0851 44.972 68.3324C46.1544 69.5797 48.4785 70.3544 51.1183 69.8377C52.978 69.4737 55.3381 68.8231 56.9097 66.7796C58.4646 64.7577 59.1753 61.8614 59.3134 57.1615C59.3482 56.9083 59.3837 56.6819 59.4263 56.4802L59.7489 56.5119H59.8457C61.8322 56.5944 63.982 56.3409 65.7823 55.577C67.3772 54.9011 68.5825 54.2195 69.4604 53.01C69.6799 52.7077 69.9273 52.3348 69.9928 51.7108C70.0582 51.0867 69.6762 50.1188 69.0248 49.6668C67.7222 48.7628 66.904 49.1048 66.0242 49.2706C64.8627 49.4895 64.0221 49.5602 63.3786 49.5717C65.9106 45.6759 67.7313 41.539 68.7667 37.8783C69.3781 35.7162 69.7213 33.7264 69.7507 31.9838C69.7813 30.2405 69.6204 28.6898 68.4774 27.3562C64.9059 23.1881 59.8927 22.0429 56.0069 22.0005L56.0059 22.0014ZM55.5383 23.269C59.2137 23.2378 63.9119 24.1841 67.2825 28.1177C68.0406 29.0025 68.2612 30.2975 68.2343 31.8888C68.2074 33.4802 67.888 35.3823 67.2986 37.4663C66.1552 41.5093 63.9985 46.2184 60.9588 50.4437C61.0337 50.4964 61.1391 50.5581 61.2975 50.618C61.9312 50.8576 63.3772 51.0676 66.2662 50.523C66.9932 50.3858 67.5362 50.2813 68.0891 50.6656C68.3655 50.8577 68.5217 51.2432 68.4924 51.5212C68.463 51.7992 68.3412 52.0108 68.202 52.2025C67.6453 52.9693 66.5321 53.6955 65.1208 54.2941C63.8688 54.8247 62.0832 55.102 60.4909 55.118C59.6947 55.126 58.9538 55.0576 58.3292 54.8803C58.3242 54.8789 58.318 54.8817 58.313 54.8803C58.0522 57.1136 57.4793 61.2682 57.1354 63.0884C56.8446 64.6288 56.3434 65.8471 55.377 66.7645C54.4106 67.6819 53.0522 68.2427 51.215 68.6025C48.9425 69.0471 47.2825 68.5688 46.2141 67.7469C45.1456 66.9249 44.6513 65.8316 44.3589 65.1641C44.1568 64.7026 44.0557 64.106 43.9556 63.3102C43.8554 62.5144 43.7813 61.5408 43.7297 60.4423C43.6593 58.9451 43.6335 57.2173 43.649 55.4194C42.5789 56.2991 41.371 56.7513 40.2613 56.9247C38.753 57.1603 37.4036 56.9183 36.5994 56.7345C36.2243 56.6489 35.8387 56.5226 35.4702 56.3384C35.1016 56.1542 34.7411 55.9507 34.5022 55.5461C34.3828 55.3438 34.3033 55.0624 34.3732 54.7856C34.443 54.5087 34.64 54.2818 34.8571 54.1201C35.2913 53.7967 35.8615 53.6178 36.7284 53.4546C38.3013 53.1588 38.8435 52.9551 39.1805 52.7099C39.4711 52.4984 39.7682 52.1074 40.3743 51.4581C40.3715 51.4315 40.3602 51.4056 40.3581 51.3789C39.3184 51.3555 38.3389 51.1005 37.4543 50.6659C37.124 50.9814 35.4358 52.6002 33.3891 54.849C32.5312 55.7909 31.585 56.3312 30.5821 56.3701C29.5792 56.409 28.6742 55.9445 27.9042 55.261C26.3648 53.8936 25.119 51.5476 24.0495 48.8909C22.98 46.2336 22.119 43.2822 21.5007 40.7622C20.8824 38.2422 20.5218 36.2108 20.4682 35.2322C20.2401 31.0668 21.2994 28.2568 23.13 26.4854C24.9606 24.7144 27.4759 24.0466 29.9214 23.9186C30.5328 23.8865 31.1435 23.8769 31.7443 23.9027C35.4012 24.0599 38.5302 25.1111 39.3265 25.3922C40.9522 24.381 43.033 23.7368 45.6502 23.776C46.9814 23.7959 48.2033 23.9594 49.3445 24.2196C49.3653 24.2103 49.3661 24.208 49.3767 24.2038C49.398 24.1955 49.4236 24.1941 49.4413 24.1879C49.5119 24.1632 49.6094 24.1334 49.7478 24.0929C50.0245 24.0119 50.4537 23.8939 51.0061 23.776C52.1108 23.5401 53.7015 23.2845 55.5392 23.2689L55.5383 23.269ZM55.5544 24.6158C54.1054 24.6281 52.8145 24.794 51.8279 24.9803C54.5623 26.0842 56.6196 27.8016 58.071 29.4962C59.2663 30.8918 60.056 32.2861 60.5392 33.3465C60.7808 33.8767 60.947 34.3149 61.0393 34.6617C61.0854 34.8351 61.1108 34.9813 61.12 35.137C61.1246 35.2149 61.139 35.2886 61.1038 35.4222C61.1005 35.435 61.092 35.4551 61.0877 35.4698C61.1491 37.2146 60.6781 38.398 60.6199 40.0649C60.5767 41.2773 60.907 42.7093 60.9909 44.2638C61.0698 45.7258 60.8872 47.3292 59.8455 48.9065C59.9281 48.9994 60.0077 49.0861 60.0875 49.1758C62.8312 45.2253 64.8253 40.8591 65.8789 37.1338C66.4462 35.1278 66.7418 33.3132 66.7662 31.8732C66.7905 30.4331 66.4941 29.3774 66.1209 28.9418C63.0856 25.3998 58.9507 24.5868 55.5543 24.6157L55.5544 24.6158ZM45.6333 25.1229C43.122 25.0853 41.2848 25.6971 39.8742 26.6599C39.7556 26.7409 39.632 26.8277 39.5193 26.9134C38.0662 28.0184 37.095 29.5298 36.4542 31.0807C35.7067 32.8898 35.4299 34.6996 35.325 35.9135C35.3364 35.9077 35.3458 35.9035 35.3573 35.8976C36.1398 35.4997 37.1774 35.0994 38.2771 34.8677C38.827 34.7519 39.3872 34.6773 39.9549 34.6776C40.5226 34.6778 41.0953 34.7575 41.6326 34.9469C42.707 35.3258 43.5858 36.2203 43.9071 37.5772C45.4488 44.0885 43.4265 46.5066 42.6811 48.336C42.6807 48.3371 42.6816 48.3507 42.6811 48.3518C42.3675 49.124 42.1045 49.8086 41.9552 50.38C42.0519 50.3574 42.1506 50.3242 42.2456 50.3166C42.7714 50.2747 43.1783 50.4458 43.4232 50.5385C44.172 50.822 44.6954 51.4099 44.9719 52.0913C45.0409 52.2614 45.0847 52.4451 45.1171 52.63C45.1174 52.6406 45.1174 52.6511 45.1171 52.6617C45.1197 52.6775 45.131 52.6933 45.1332 52.7092C45.1556 52.776 45.1665 52.8455 45.1655 52.9152C45.0841 55.5715 45.0965 58.2404 45.1977 60.394C45.2484 61.4708 45.3296 62.4198 45.4236 63.1668C45.5176 63.9138 45.646 64.4801 45.7301 64.6721C46.0102 65.3116 46.4251 66.1463 47.1658 66.7161C47.9065 67.286 48.9676 67.6663 50.9085 67.2866C52.5912 66.9571 53.6194 66.5024 54.3123 65.8446C55.0053 65.1868 55.4186 64.2693 55.6835 62.8657C56.0762 60.7878 56.8654 54.8343 56.9741 53.5963C56.9723 53.5681 56.9754 53.5449 56.9741 53.5171C56.9738 53.5065 56.9738 53.496 56.9741 53.4854C56.9373 52.6407 57.079 51.9884 57.3774 51.4889C57.6894 50.9666 58.1697 50.6466 58.5873 50.4749C58.7933 50.3901 58.9906 50.3438 59.1519 50.3006C59.0262 50.1342 58.8496 49.9162 58.6196 49.6509C58.1739 49.1369 57.5965 48.4336 57.1515 47.4484C57.104 47.3433 56.8786 46.9597 56.5869 46.4819C56.2952 46.0041 55.9396 45.3981 55.5545 44.7231C54.7842 43.3731 53.9408 41.7372 53.5057 40.1438C53.0705 38.5505 53.0046 36.9031 54.1187 35.7389C55.1062 34.707 56.8288 34.2791 59.4261 34.5188C59.3509 34.3066 59.3128 34.1356 59.1841 33.8533C58.749 32.8982 57.9938 31.6205 56.8934 30.3357C54.6916 27.766 51.1384 25.205 45.6324 25.1225L45.6333 25.1229ZM31.1626 25.2338C30.7737 25.2262 30.3909 25.2293 30.0013 25.2497C27.7886 25.3656 25.6906 25.9567 24.1938 27.4046C22.6971 28.8527 21.72 31.2227 21.9353 35.1527C21.976 35.8961 22.3279 37.9844 22.9355 40.4608C23.543 42.9372 24.3995 45.8562 25.4359 48.4309C26.4723 51.0055 27.726 53.2492 28.9204 54.3094C29.5176 54.8396 30.0432 55.0408 30.5175 55.0224C30.9918 55.004 31.5619 54.7587 32.2598 53.9925C34.2029 51.8576 35.7277 50.3845 36.2282 49.9045C34.3795 48.4648 33.2749 46.1343 33.6633 43.5981C33.8894 42.1212 33.916 40.7298 33.8891 39.6368C33.8644 38.6319 33.8019 37.9613 33.7923 37.5135C33.7826 37.4718 33.7772 37.4294 33.7762 37.3868C33.7762 37.3868 33.7762 37.3712 33.7762 37.3709C33.775 37.3257 33.6875 33.982 35.0829 30.6049C35.6971 29.1175 36.606 27.6148 37.9702 26.39C36.5293 25.9614 33.8863 25.2866 31.1625 25.2333L31.1626 25.2338ZM57.6999 35.8026C56.3935 35.8593 55.6393 36.2007 55.2317 36.6265C54.6107 37.2754 54.5576 38.4222 54.9414 39.8273C55.3251 41.2323 56.1152 42.7984 56.861 44.1055C57.2339 44.759 57.5848 45.3534 57.8774 45.8326C58.1699 46.3118 58.3919 46.6524 58.5227 46.9418C58.6454 47.2135 58.7739 47.4493 58.9098 47.6707C59.4897 46.5582 59.5843 45.4658 59.5228 44.3273C59.447 42.9222 59.1 41.4743 59.1518 40.0174C59.2115 38.3064 59.5922 37.2219 59.6196 35.8976C59.139 35.8436 58.6898 35.8097 58.2968 35.8026C58.0872 35.7988 57.8866 35.7945 57.7 35.8026L57.6999 35.8026ZM39.955 36.0244C39.5287 36.0242 39.0635 36.0852 38.5999 36.1829C37.6726 36.3782 36.7516 36.7303 36.0833 37.0702C35.7491 37.2401 35.4683 37.4113 35.309 37.5297C35.2813 37.5502 35.2808 37.5604 35.2606 37.5772C35.2719 37.8712 35.3479 38.5645 35.3735 39.6055C35.4016 40.7462 35.3726 42.2144 35.1315 43.7886C34.6079 47.2085 37.3259 50.0427 40.5196 50.0474C40.7053 49.3446 41.0047 48.6284 41.3101 47.8766C42.2005 45.6884 43.9469 44.0934 42.4716 37.8625C42.2306 36.845 41.7568 36.4302 41.1004 36.1988C40.7723 36.083 40.3813 36.0247 39.9551 36.0245L39.955 36.0244ZM57.4101 36.4364C57.5543 36.4396 57.6801 36.4586 57.7972 36.4839C57.9144 36.5093 58.0215 36.5429 58.1038 36.5948C58.186 36.6468 58.2508 36.7232 58.2651 36.8167C58.2658 36.8213 58.2646 36.8279 58.2651 36.8325C58.2747 36.9248 58.2377 37.008 58.1844 37.1019C58.1285 37.2005 58.0457 37.3039 57.9424 37.4029C57.736 37.601 57.4502 37.7869 57.1036 37.8308C56.7573 37.8748 56.4336 37.7692 56.2002 37.6248C56.0835 37.5526 55.9825 37.4696 55.9098 37.3871C55.8371 37.3046 55.7945 37.223 55.7808 37.1336C55.7668 37.0401 55.8139 36.9506 55.8775 36.8801C55.9412 36.8095 56.0144 36.7435 56.1195 36.6899C56.3297 36.5826 56.6201 36.5091 56.9422 36.4681C57.1033 36.4476 57.2658 36.4332 57.41 36.4364L57.4101 36.4364ZM40.052 36.7691C40.2034 36.7658 40.3685 36.7795 40.536 36.8008C40.8713 36.8434 41.1623 36.9218 41.391 37.0385C41.5053 37.0968 41.6036 37.174 41.6814 37.2603C41.7591 37.3466 41.8144 37.4611 41.7943 37.5931C41.7753 37.7172 41.7143 37.8018 41.633 37.8941C41.5517 37.9865 41.4529 38.0852 41.3265 38.1635C41.0735 38.3201 40.7255 38.4341 40.3424 38.3853C39.9588 38.3368 39.6441 38.138 39.4229 37.9258C39.3122 37.8197 39.2271 37.7031 39.1648 37.5931C39.1024 37.483 39.0463 37.3846 39.068 37.2445L39.1002 37.0543H39.1648C39.1997 37.0149 39.2517 36.97 39.2938 36.9434C39.3944 36.8799 39.5052 36.8442 39.6326 36.8167C39.76 36.7891 39.9006 36.7725 40.052 36.7691H40.052ZM60.0076 51.4732C59.6847 51.5772 59.4232 51.6195 59.201 51.7109C58.9789 51.8023 58.8106 51.9011 58.6686 52.1387C58.531 52.3691 58.4084 52.7763 58.4428 53.4697C58.4811 53.4974 58.5856 53.5455 58.7654 53.5965C59.1416 53.7033 59.7766 53.7778 60.4754 53.7708C61.8732 53.7568 63.594 53.4612 64.5084 53.0736C65.3778 52.7048 66.1227 52.2093 66.5734 51.8376C63.5242 52.412 61.7889 52.2683 60.7336 51.8693C60.4289 51.7542 60.2018 51.6178 60.0077 51.4732L60.0076 51.4732ZM42.3747 51.6472C42.2582 51.6565 42.0859 51.6961 41.7616 52.0275C40.9981 52.8065 40.7294 53.2967 40.1 53.7547C39.4707 54.2127 38.6509 54.4619 37.0188 54.7687C36.5022 54.866 36.2159 54.9695 36.0186 55.054C36.0815 55.1006 36.0661 55.1002 36.1638 55.149C36.4009 55.2675 36.7077 55.3779 36.9543 55.4342C37.6579 55.595 38.8172 55.7805 40.0193 55.5927C41.2214 55.4049 42.4683 54.8826 43.5361 53.517C43.7195 53.2824 43.7361 52.924 43.5845 52.5504C43.4329 52.1768 43.0957 51.8638 42.8586 51.774C42.6278 51.6867 42.4914 51.638 42.3753 51.6473L42.3747 51.6472Z" fill="#529DC8"/>
</svg>
