<svg width="90" height="92" viewBox="0 0 90 92" fill="none" xmlns="http://www.w3.org/2000/svg">
<rect width="90" height="92" rx="11" fill="#B9DDBB"/>
<path fill-rule="evenodd" clip-rule="evenodd" d="M41.1573 22.1493C38.1135 22.6295 34.3796 24.1365 31.3887 26.0915C29.6955 27.1983 26.2926 30.6066 25.1876 32.3025C20.3271 39.7612 19.666 48.4935 23.3705 56.3012C30.0167 70.3093 47.922 74.406 60.044 64.6918C65.3493 60.4404 68.5461 54.2285 68.9561 47.3747C69.6349 36.022 62.3862 25.9182 51.2641 22.7139C49.5525 22.2208 48.5111 22.0868 45.8485 22.0165C44.0354 21.9687 41.9245 22.0283 41.1573 22.1493ZM46.9081 43.4546V55.3355L44.9655 55.651C43.8972 55.8246 41.8574 55.9673 40.4328 55.9682C35.8729 55.9715 33.0212 54.6518 31.6811 51.9185C31.1167 50.7676 31.0018 50.2061 30.9336 48.2678C30.8747 46.5957 30.9573 45.6625 31.2389 44.8128C32.4596 41.1326 35.3565 39.2476 39.7853 39.252L41.9633 39.2542V35.4141V31.5737H44.4357H46.9081V43.4546ZM55.1493 34.1679V36.7621H52.5592H49.9691V34.1679V31.5737H52.5592H55.1493V34.1679ZM55.0829 47.7874C55.0146 52.7757 54.866 56.3786 54.7033 56.9946C54.0492 59.472 52.5274 61.5219 50.6182 62.4973L49.7129 62.96L47.4275 61.8714L45.1421 60.783L45.8485 60.413C47.9775 59.298 49.2509 57.6582 49.7103 55.4404C49.8659 54.6886 49.9691 51.282 49.9691 46.8914V39.5921H52.582H55.1949L55.0829 47.7874ZM38.6129 43.4001C35.883 44.164 34.9183 48.7722 37.0429 50.9001C37.8489 51.7074 39.6746 52.2012 41.0147 51.9746L41.9633 51.814V47.7216C41.9633 45.4708 41.8661 43.569 41.7474 43.4954C41.3015 43.2195 39.459 43.1634 38.6129 43.4001Z" fill="#419746"/>
</svg>
