<svg width="90" height="92" viewBox="0 0 90 92" fill="none" xmlns="http://www.w3.org/2000/svg">
<rect width="90" height="92" rx="11" fill="#FFEFB8"/>
<path fill-rule="evenodd" clip-rule="evenodd" d="M20 29C20 24.5817 23.5817 21 28 21H62C66.4183 21 70 24.5817 70 29V63C70 67.4183 66.4183 71 62 71H28C23.5817 71 20 67.4183 20 63V29ZM60.2803 46.6392C59.3852 44.0615 55.7148 44.0615 54.9988 46.1947C54.2828 48.328 56.6997 49.5723 60.4594 50.8168C64.2191 52.0612 66.5466 55.3501 66.099 58.2832C65.6514 61.2162 64.3981 65.0385 56.9683 65.0385C52.3247 65.0385 49.7441 62.1565 48.4615 59.9953L52.6715 57.4832C52.6715 57.4832 54.1037 60.5053 56.7892 60.5053C59.4747 60.5053 60.5488 59.6165 60.5488 57.5721C60.5488 56.4476 58.7759 55.6497 56.7085 54.7192C54.2004 53.5905 51.259 52.2667 50.523 49.928C49.1803 45.6615 50.9706 39.6173 57.2367 40.0616C61.1531 40.3394 63.356 42.249 64.4575 43.6421L60.2803 46.6392ZM40.8632 57.721V40.6154H45.9615V59.3247C45.9615 62.1757 42.7416 65.5612 37.1064 65.2048C31.4713 64.8484 30.5769 60.7502 30.5769 60.7502L34.6914 57.9884C34.6914 57.9884 35.4964 60.1265 37.2853 60.4829C39.0742 60.8393 40.8632 59.7701 40.8632 57.721Z" fill="#DCB943"/>
</svg>
