<svg width="90" height="92" viewBox="0 0 90 92" fill="none" xmlns="http://www.w3.org/2000/svg">
<rect width="90" height="92" rx="11" fill="#DFECFF"/>
<path fill-rule="evenodd" clip-rule="evenodd" d="M15 46.5V70C15 73.3137 17.6863 76 21 76H44.5H68C71.3137 76 74 73.3137 74 70V46.5V23C74 19.6863 71.3137 17 68 17H44.5H21C17.6863 17 15 19.6863 15 23V46.5ZM64.0119 44.7995C65.1308 45.37 67.4187 47.5779 67.4049 48.0732C67.4016 48.1963 66.5205 48.8741 65.4468 49.5794L63.495 50.8615L62.7385 49.9624C60.8927 47.7689 57.2284 48.4665 57.2284 51.0116C57.2284 52.4689 57.9496 53.0858 61.8969 55.0053C63.8882 55.9735 66.0188 57.206 66.6316 57.7441C70.7544 61.3641 69.699 68.1374 64.675 70.2986C63.2934 70.8931 62.734 70.9559 59.7972 70.8472C57.1389 70.749 56.2039 70.5909 55.0912 70.0509C53.3889 69.2252 51.5635 67.6837 50.8687 66.486L50.3491 65.5902L52.4605 64.3677L54.5719 63.1452L55.4974 64.1994C57.3291 66.2857 59.6184 66.893 62.023 65.9311C63.3914 65.3836 63.8173 64.7855 63.8173 63.4114C63.8173 62.0733 62.6046 61.0553 59.4249 59.7253C56.2605 58.4015 54.2365 56.9774 53.1182 55.2874C52.4518 54.2802 52.2724 53.6246 52.1838 51.8681C52.1215 50.6351 52.2341 49.2101 52.4437 48.5749C52.9699 46.9798 55.0793 44.9825 56.8301 44.4209C58.7966 43.7902 62.4069 43.9804 64.0119 44.7995ZM48.5431 46.6497V49.0457H44.7995H41.0558V59.8274V70.6091H38.3604H35.665V59.8364V49.0637L31.8464 48.9798L28.0279 48.8959L27.9291 47.8555C27.8746 47.2835 27.9168 46.2391 28.0222 45.5344L28.2145 44.2538H38.3787H48.5431V46.6497Z" fill="#2196F3"/>
</svg>
