<svg width="90" height="92" viewBox="0 0 90 92" fill="none" xmlns="http://www.w3.org/2000/svg">
<rect width="90" height="92" rx="11" fill="#D8F0FF"/>
<path fill-rule="evenodd" clip-rule="evenodd" d="M65.2132 59.3514C62.6 59.2863 60.5766 59.5462 58.8796 60.2637C58.3897 60.4585 57.6073 60.4585 57.5403 61.0775C57.8032 61.3374 57.8344 61.7604 58.0649 62.1206C58.4555 62.7718 59.1396 63.6496 59.7613 64.1066C60.4465 64.6276 61.1324 65.1469 61.8517 65.6027C63.124 66.3876 64.5609 66.8418 65.7997 67.6233C66.5201 68.0786 67.2361 68.6641 67.9565 69.1539C68.3142 69.4144 68.5407 69.8386 69 70V69.9009C68.7695 69.6087 68.7054 69.1851 68.4782 68.8578C68.1524 68.535 67.8254 68.24 67.4984 67.9155C66.5508 66.6458 65.3739 65.5399 64.1039 64.6276C63.0581 63.9095 60.7719 62.9327 60.3489 61.7309L60.2831 61.6641C61.0012 61.5985 61.8517 61.3374 62.5364 61.1398C63.6452 60.8476 64.6569 60.9138 65.7997 60.6222C66.3226 60.4903 66.8455 60.3266 67.37 60.1663V59.8713C66.7791 59.2868 66.3561 58.5037 65.7361 57.951C64.0726 56.5183 62.2423 55.1189 60.3489 53.945C59.3355 53.2938 58.0297 52.8724 56.9522 52.3175C56.5621 52.1216 55.9098 52.0253 55.6804 51.698C55.0923 50.9816 54.7647 50.0387 54.3412 49.1904C53.3953 47.4015 52.4796 45.4155 51.6649 43.5241C51.0773 42.255 50.7184 40.9859 49.9997 39.8126C46.6354 34.276 42.9803 30.9235 37.3654 27.6339C36.1573 26.9493 34.7209 26.6565 33.188 26.298C32.3705 26.2641 31.5547 26.2006 30.7388 26.1689C30.2154 25.9396 29.6925 25.3206 29.236 25.0278C27.3745 23.8562 22.5777 21.3163 21.206 24.6699C20.3243 26.7878 22.5118 28.8712 23.2624 29.9461C23.817 30.6942 24.5363 31.5419 24.9264 32.3874C25.1552 32.9412 25.2205 33.5284 25.4498 34.1134C25.9716 35.5462 26.461 37.1425 27.1479 38.4784C27.5056 39.1619 27.8968 39.8794 28.3538 40.495C28.6178 40.8557 29.0731 41.0166 29.1713 41.6043C28.716 42.255 28.6803 43.2319 28.4197 44.0462C27.245 47.7265 27.7009 52.2852 29.3666 54.9876C29.8878 55.8019 31.13 57.5931 32.7951 56.9079C34.2639 56.3229 33.9374 54.4666 34.3615 52.839C34.4592 52.4455 34.3939 52.1878 34.5892 51.9273V51.993C35.0462 52.9036 35.5044 53.7808 35.9285 54.6953C36.9419 56.2895 38.703 57.9504 40.1734 59.057C40.9546 59.6453 41.5757 60.6528 42.5551 61.0124V60.9138H42.4909C42.2939 60.6216 42.0009 60.4908 41.7398 60.2637C41.1522 59.677 40.501 58.9601 40.0417 58.3094C38.6712 56.4865 37.4614 54.4666 36.3866 52.3826C35.8626 51.3707 35.4067 50.2647 34.9821 49.2556C34.7868 48.867 34.7868 48.2787 34.4592 48.0839C33.9681 48.7997 33.2522 49.4198 32.8934 50.2959C32.2728 51.698 32.2075 53.4235 31.9776 55.2152C31.8476 55.2486 31.9135 55.2152 31.8476 55.2798C30.8041 55.0193 30.4453 53.945 30.0524 53.0366C29.0731 50.7211 28.9085 47.0085 29.7589 44.3384C29.986 43.656 30.9682 41.5069 30.5748 40.8557C30.3772 40.2345 29.7254 39.8794 29.3666 39.389C28.9431 38.7706 28.4838 37.9903 28.1925 37.3051C27.4085 35.4822 27.0151 33.4622 26.1686 31.6393C25.7763 30.7916 25.0893 29.9121 24.5363 29.1317C23.9147 28.2523 23.23 27.6345 22.7395 26.5936C22.5777 26.234 22.3489 25.6473 22.6089 25.2577C22.6731 24.9972 22.8059 24.8987 23.067 24.8336C23.4895 24.4751 24.6987 24.9304 25.1223 25.1258C26.331 25.6128 27.3432 26.0715 28.3538 26.7539C28.8114 27.0801 29.3013 27.6985 29.8878 27.8627H30.5748C31.6188 28.0892 32.7951 27.9261 33.775 28.2206C35.5044 28.7738 37.0708 29.5876 38.4759 30.4671C42.7509 33.17 46.2771 37.0134 48.6593 41.6043C49.0516 42.3524 49.2162 43.0371 49.575 43.8169C50.2609 45.4155 51.1102 47.0436 51.7943 48.6054C52.4796 50.1361 53.1336 51.698 54.1146 52.9693C54.6029 53.6523 56.5621 54.0102 57.4438 54.3692C58.0956 54.6614 59.109 54.9219 59.6971 55.2798C60.8065 55.9628 61.9142 56.7454 62.9605 57.4951C63.4817 57.8864 65.1145 58.6996 65.2132 59.3514Z" fill="#5D87A1"/>
</svg>
