<svg width="90" height="92" viewBox="0 0 90 92" fill="none" xmlns="http://www.w3.org/2000/svg">
<rect width="90" height="92" rx="11" fill="#E6FFDF"/>
<path fill-rule="evenodd" clip-rule="evenodd" d="M55.1127 27.0723C55.0089 27.138 55.0019 27.4364 55.0019 31.7906C55.0019 36.3573 54.9877 36.705 54.8013 36.705C54.7631 36.705 54.3831 36.4882 53.9568 36.2231C53.3979 35.8757 53.1191 35.7412 52.9573 35.7412C52.7794 35.7412 52.15 36.1061 49.9247 37.4994C48.3802 38.4664 47.0523 39.3355 46.974 39.4309L46.8315 39.6042V43.3169V47.0295L47.0056 47.2288C47.1015 47.3383 48.4303 48.2104 49.9586 49.1669C52.2085 50.5747 52.7812 50.9055 52.9671 50.9042C53.1508 50.9029 53.7671 50.544 56.0469 49.1108C58.096 47.8226 58.9282 47.2641 59.0079 47.1237C59.1123 46.94 59.118 46.4093 59.103 38.1351L59.0871 29.3418L58.9287 29.1745C58.7234 28.9577 55.4849 26.9973 55.3366 27C55.2744 27.0012 55.1736 27.0337 55.1127 27.0723ZM22.8903 35.5849C22.5913 35.7086 17.2609 39.0873 17.1425 39.2281L17 39.3977V44.2367C17 48.8372 17.0057 49.0814 17.1158 49.1897C17.1796 49.2523 17.2761 49.3036 17.3305 49.3036C17.4691 49.3036 20.7338 47.2676 20.9269 47.0608L21.0852 46.8911L21.1169 44.4658C21.1387 42.796 21.1716 41.9976 21.2226 41.9028C21.3387 41.687 22.8752 40.7531 23.1141 40.7531C23.3306 40.7531 24.7035 41.5639 24.9646 41.8459C25.1068 41.9995 25.1071 42.0041 25.1073 44.3609C25.1075 46.5644 25.1156 46.7363 25.2287 46.9378C25.3209 47.1022 25.7661 47.412 27.0953 48.2366C28.9712 49.4003 29.1028 49.4507 29.2068 49.0444C29.2334 48.9409 29.2552 46.7441 29.2553 44.1627C29.2556 39.5759 29.2527 39.4652 29.1289 39.2864C28.9586 39.0403 23.3556 35.5338 23.1436 35.5405C23.0565 35.5433 22.9425 35.5632 22.8903 35.5849ZM67.6933 35.6686C67.2746 35.8605 62.0983 39.1612 61.953 39.3288L61.7789 39.5299V43.1809C61.7789 46.2311 61.7939 46.8637 61.8704 47.0246C61.9988 47.2944 67.5732 50.7493 67.8802 50.7493C68.0276 50.7493 68.5667 50.4609 69.7622 49.7427C70.6837 49.189 71.4876 48.6885 71.5485 48.6305C71.6094 48.5725 71.6593 48.4417 71.6593 48.3398C71.6593 48.2379 71.6094 48.1085 71.5485 48.0523C71.4876 47.996 70.2264 47.1986 68.7459 46.2801C67.2654 45.3617 66.0042 44.5475 65.9432 44.4709C65.8481 44.3513 65.8325 44.1838 65.8333 43.2893C65.8337 42.7161 65.8513 42.1776 65.8722 42.0927C65.899 41.9838 66.1721 41.7734 66.8003 41.3776C67.2899 41.0692 67.7426 40.802 67.8063 40.7838C67.9275 40.7494 69.5531 41.7131 69.7681 41.9469C69.8714 42.0591 69.8859 42.1901 69.8859 43.0089C69.8859 43.5225 69.9154 44.0027 69.9515 44.076C70.0854 44.3478 70.3321 44.2388 72.0801 43.135C73.0156 42.5442 73.8303 41.9944 73.8906 41.913C73.9843 41.7863 74 41.6025 74 40.6292C74 39.6559 73.9843 39.472 73.8906 39.3454C73.7464 39.1506 68.236 35.6799 68.0056 35.6388C67.9076 35.6213 67.7671 35.6347 67.6933 35.6686ZM35.0192 37.4301C33.4865 38.3934 32.1683 39.2612 32.0899 39.3584L31.9474 39.5354L31.9488 43.2319C31.9501 46.6293 31.9591 46.9406 32.0596 47.078C32.1199 47.1603 33.4374 48.0236 34.9875 48.9965C37.2234 50.3997 37.8529 50.7657 38.0328 50.7668C38.3531 50.7687 43.8794 47.3103 44.0544 46.9983C44.1634 46.804 44.1709 46.5656 44.1711 43.2557C44.1713 39.3531 44.1767 39.4088 43.7745 39.1477C43.6618 39.0745 42.3726 38.2628 40.9095 37.3437C38.7875 36.0107 38.2045 35.6733 38.0277 35.6757C37.8559 35.6779 37.1785 36.073 35.0192 37.4301ZM53.9639 41.4381L54.9373 42.0405L54.9379 43.3143L54.9385 44.5882L53.9717 45.1903C53.4399 45.5215 52.9805 45.7925 52.9506 45.7925C52.9208 45.7925 52.4579 45.5215 51.9219 45.1901L50.9474 44.5877L50.9637 43.3157L50.98 42.0437L51.93 41.4405C52.4526 41.1087 52.9049 40.8369 52.9353 40.8365C52.9656 40.8361 53.4285 41.1068 53.9639 41.4381ZM67.2416 42.0848L66.7191 42.4266V43.2001V43.9736L67.2958 44.3323C67.6131 44.5296 67.8909 44.6905 67.9134 44.6898C67.9358 44.6891 68.2107 44.5243 68.5242 44.3235L69.0942 43.9584L69.1102 43.2405C69.119 42.8455 69.1048 42.4897 69.0786 42.4498C68.9957 42.3235 67.9968 41.7304 67.878 41.7369C67.8153 41.7403 67.529 41.8969 67.2416 42.0848ZM44.8047 49.7396C44.4855 49.8734 39.4226 53.0651 39.2407 53.2472C38.9156 53.5724 38.9144 53.5877 38.9144 57.324C38.9144 61.1064 38.9114 61.0711 39.2708 61.4298C39.5242 61.6826 40.9538 62.5613 41.337 62.6996C41.8172 62.8729 42.5634 62.8098 42.9007 62.5672C43.2483 62.3171 43.4658 61.9362 43.5392 61.4486C43.6137 60.9549 43.6208 54.6758 43.5471 54.5496C43.5105 54.4868 43.3646 54.4663 43.0572 54.4808L42.6196 54.5014L42.5879 57.8977L42.5562 61.294L42.3494 61.4948C41.9968 61.8371 41.7474 61.7878 40.7796 61.1839L39.9595 60.6722L39.9431 57.3418L39.9266 54.0114L42.5315 52.3761C44.2215 51.3153 45.1728 50.7559 45.2398 50.7836C45.2966 50.807 46.4901 51.5446 47.892 52.4228L50.4409 54.0195L50.4413 57.3322L50.4416 60.6449L47.8472 62.2718C46.4203 63.1666 45.2162 63.8981 45.1713 63.8974C45.1264 63.8967 44.7814 63.6979 44.4047 63.4556L43.7196 63.0152L43.3279 63.208C43.1125 63.314 42.884 63.4199 42.8202 63.4433C42.7563 63.4666 42.7155 63.523 42.7295 63.5686C42.7435 63.6141 43.209 63.9439 43.7639 64.3013C44.828 64.9864 45.11 65.09 45.5047 64.9404C45.8591 64.8061 50.9084 61.6068 51.1168 61.3845C51.2269 61.2671 51.3491 61.0415 51.3883 60.8833C51.4378 60.6835 51.454 59.5482 51.4414 57.1648L51.4234 53.7338L51.2548 53.4571C51.1084 53.2168 50.7233 52.9524 48.3263 51.4474C45.3954 49.6069 45.2681 49.5452 44.8047 49.7396ZM52.6844 52.8072C51.9066 53.3228 52.0337 54.5333 52.895 54.8139C53.2635 54.9339 53.5763 54.8488 53.872 54.5485C54.3708 54.0419 54.2947 53.1952 53.7159 52.8116C53.449 52.6349 52.9477 52.6327 52.6844 52.8072ZM53.5141 52.9827C53.7645 53.0964 53.9879 53.4487 53.9882 53.7303C53.9888 54.1945 53.6187 54.6061 53.2041 54.6022C52.7283 54.5978 52.4063 54.2509 52.4055 53.7422C52.405 53.4222 52.5271 53.202 52.8083 53.0156C53.0459 52.8581 53.2219 52.8499 53.5141 52.9827ZM52.7851 53.7441C52.7851 54.3522 52.794 54.3981 52.9118 54.3981C53.0143 54.3981 53.0384 54.3522 53.0384 54.1571C53.0384 53.964 53.0629 53.9162 53.1623 53.9162C53.2536 53.9162 53.297 53.9794 53.3276 54.1571C53.3606 54.3479 53.3989 54.3981 53.512 54.3981C53.643 54.3981 53.6511 54.3763 53.6105 54.1346C53.5861 53.9897 53.5467 53.837 53.523 53.7952C53.4991 53.7534 53.5087 53.6997 53.5441 53.6759C53.6591 53.5987 53.6126 53.3076 53.4677 53.1972C53.3903 53.1383 53.205 53.0901 53.056 53.0901H52.7851V53.7441ZM53.3234 53.5031C53.3234 53.5599 53.2593 53.6163 53.1809 53.6284C53.0712 53.6453 53.0384 53.6164 53.0384 53.5031C53.0384 53.3898 53.0712 53.361 53.1809 53.3778C53.2593 53.3899 53.3234 53.4463 53.3234 53.5031ZM46.0398 54.3253C45.4411 54.4033 45.0294 54.5841 44.6856 54.9201C44.0404 55.5506 43.9911 56.561 44.5746 57.1953C44.9056 57.555 45.4052 57.7318 46.5064 57.8788C47.7771 58.0484 48.1938 58.1981 48.266 58.5109C48.3617 58.9255 48.0773 59.3041 47.5837 59.4191C47.1713 59.5153 46.2916 59.5129 45.8698 59.4146C45.4866 59.3253 45.1528 59.0172 45.0896 58.6946C45.0166 58.3211 44.9752 58.2891 44.5389 58.2677C44.0037 58.2415 43.9489 58.3057 44.0407 58.8509C44.1153 59.2942 44.3342 59.6825 44.6801 59.9851C45.3482 60.5698 47.1454 60.7339 48.2126 60.3076C48.6965 60.1143 49.1873 59.579 49.2909 59.1313C49.4503 58.4436 49.3441 57.9307 48.9591 57.5274C48.6136 57.1657 48.1468 57.0004 46.9265 56.8077C45.7313 56.6188 45.3653 56.4935 45.2862 56.2462C45.1999 55.976 45.3393 55.6722 45.6181 55.5228C45.9013 55.371 46.9346 55.3126 47.3236 55.4265C47.679 55.5305 47.9407 55.786 48.0706 56.1556L48.1788 56.4634H48.6414C48.8959 56.4634 49.122 56.4321 49.1438 56.3936C49.2209 56.258 49.037 55.5657 48.838 55.2425C48.5904 54.8404 48.1098 54.5147 47.6096 54.4102C47.086 54.3008 46.4795 54.2679 46.0398 54.3253Z" fill="#3E892D"/>
</svg>
