<svg width="90" height="92" viewBox="0 0 90 92" fill="none" xmlns="http://www.w3.org/2000/svg">
<rect width="90" height="92" rx="11" fill="#D8FCC7"/>
<path fill-rule="evenodd" clip-rule="evenodd" d="M32.2274 21.333C30.1612 22.0664 29.4973 22.753 27.367 26.3585C23.1234 33.5414 17.6803 43.0274 17.3469 43.8216C16.8061 45.1097 16.9083 47.2396 17.5791 48.6501C18.363 50.299 28.5458 67.7894 29.2773 68.7435C29.6 69.1647 30.5389 69.8446 31.3636 70.2546L32.8627 71H45.0403H57.2179L58.4285 70.3998C59.0942 70.0698 59.9765 69.4445 60.3888 69.0105C61.0513 68.3132 63.569 64.093 70.5857 51.9183C72.8425 48.0024 73.2753 46.6461 72.8588 44.7968C72.7162 44.1647 72.4362 43.3326 72.2361 42.9477C72.036 42.5625 71.7643 41.0787 71.6321 39.65C71.3721 36.8354 70.6899 33.0412 69.9273 30.1662C69.1925 27.396 67.2037 21.226 67.0459 21.2275C66.9689 21.2279 66.4426 22.1251 65.8765 23.2208C65.3102 24.3166 64.4729 25.6786 64.0153 26.2476L63.1838 27.282L61.9321 25.2205C60.6161 23.0531 59.822 22.2918 58.0351 21.4853C56.9908 21.0141 56.4918 20.9955 45.0493 21.0006C35.6662 21.0047 32.9545 21.075 32.2274 21.333ZM67.7057 26.8439C69.7355 33.5001 70.4767 37.8471 70.4652 43.0298C70.4572 46.6705 70.0602 49.0771 69.0331 51.7088C66.6952 57.6988 62.1886 60.6976 54.2114 61.5708C52.8167 61.7235 48.4733 61.8054 43.8688 61.7658L35.9307 61.6976L41.5828 59.8616C44.6916 58.8516 48 57.6384 48.9349 57.1653C55.2952 53.9477 61.3418 47.3352 63.6088 41.1184C64.8061 37.8345 64.7495 37.3242 63.4667 39.8397C60.3657 45.921 54.48 51.1958 47.4217 54.2192C45.1136 55.2077 41.5066 56.2537 36.0839 57.5065L31.9758 58.4556L30.8844 57.7812C28.1222 56.0742 26.6748 51.6897 27.5321 47.6257C28.2944 44.0115 30.6865 40.5899 33.7224 38.772C36.6714 37.006 39.2539 36.4094 45.8485 35.9714C52.4046 35.536 55.8302 34.3846 60.5928 31.0162C62.3615 29.7653 65.2867 26.7475 66.0638 25.372C66.3759 24.8194 66.703 24.3673 66.7906 24.3673C66.8786 24.3673 67.2902 25.4817 67.7057 26.8439ZM31.2674 60.7444C32.9582 62.6559 30.3596 65.326 28.344 63.7485C26.6251 62.4034 27.8464 59.6262 29.9925 59.9998C30.3932 60.0696 30.967 60.4045 31.2674 60.7444Z" fill="#48A73D"/>
</svg>
