<svg width="1007" height="92" viewBox="0 0 1007 92" fill="none" xmlns="http://www.w3.org/2000/svg">
<path d="M57.5117 39.4336V53.1445H12.9805V39.4336H57.5117ZM18.1953 4.6875V90H0.617188V4.6875H18.1953ZM70.0508 4.6875V90H52.5312V4.6875H70.0508ZM102.102 26.6016V90H85.168V26.6016H102.102ZM84.1133 10.0781C84.1133 7.61719 84.9727 5.58594 86.6914 3.98438C88.4102 2.38281 90.7148 1.58203 93.6055 1.58203C96.457 1.58203 98.7422 2.38281 100.461 3.98438C102.219 5.58594 103.098 7.61719 103.098 10.0781C103.098 12.5391 102.219 14.5703 100.461 16.1719C98.7422 17.7734 96.457 18.5742 93.6055 18.5742C90.7148 18.5742 88.4102 17.7734 86.6914 16.1719C84.9727 14.5703 84.1133 12.5391 84.1133 10.0781ZM135.09 4.6875L133.156 63.9258H119.094L117.102 4.6875H135.09ZM116.633 82.2656C116.633 79.7656 117.492 77.6953 119.211 76.0547C120.969 74.375 123.273 73.5352 126.125 73.5352C129.016 73.5352 131.32 74.375 133.039 76.0547C134.758 77.6953 135.617 79.7656 135.617 82.2656C135.617 84.6875 134.758 86.7383 133.039 88.418C131.32 90.0977 129.016 90.9375 126.125 90.9375C123.273 90.9375 120.969 90.0977 119.211 88.418C117.492 86.7383 116.633 84.6875 116.633 82.2656ZM198.137 4.6875V90H180.617V4.6875H198.137ZM228.957 0V8.90625C228.957 11.4453 228.469 14.0625 227.492 16.7578C226.555 19.4531 225.285 22.0117 223.684 24.4336C222.082 26.8164 220.324 28.8477 218.41 30.5273L210.5 25.957C211.945 23.6523 213.176 21.1523 214.191 18.457C215.207 15.7227 215.715 12.5586 215.715 8.96484V0H228.957ZM256.789 39.7266V90H239.855V26.6016H255.734L256.789 39.7266ZM254.445 56.0742H249.758C249.758 51.6602 250.285 47.5977 251.34 43.8867C252.434 40.1367 254.016 36.8945 256.086 34.1602C258.195 31.3867 260.793 29.2383 263.879 27.7148C266.965 26.1914 270.539 25.4297 274.602 25.4297C277.414 25.4297 279.992 25.8594 282.336 26.7188C284.68 27.5391 286.691 28.8477 288.371 30.6445C290.09 32.4023 291.418 34.707 292.355 37.5586C293.293 40.3711 293.762 43.75 293.762 47.6953V90H276.887V49.5703C276.887 46.6797 276.496 44.4531 275.715 42.8906C274.934 41.3281 273.82 40.2344 272.375 39.6094C270.969 38.9844 269.27 38.6719 267.277 38.6719C265.09 38.6719 263.176 39.1211 261.535 40.0195C259.934 40.918 258.605 42.168 257.551 43.7695C256.496 45.332 255.715 47.168 255.207 49.2773C254.699 51.3867 254.445 53.6523 254.445 56.0742ZM292.18 54.1406L286.145 54.9023C286.145 50.7617 286.652 46.9141 287.668 43.3594C288.723 39.8047 290.266 36.6797 292.297 33.9844C294.367 31.2891 296.926 29.1992 299.973 27.7148C303.02 26.1914 306.535 25.4297 310.52 25.4297C313.566 25.4297 316.34 25.8789 318.84 26.7773C321.34 27.6367 323.469 29.0234 325.227 30.9375C327.023 32.8125 328.391 35.2734 329.328 38.3203C330.305 41.3672 330.793 45.0977 330.793 49.5117V90H313.859V49.5117C313.859 46.582 313.469 44.3555 312.688 42.832C311.945 41.2695 310.852 40.1953 309.406 39.6094C308 38.9844 306.32 38.6719 304.367 38.6719C302.336 38.6719 300.559 39.082 299.035 39.9023C297.512 40.6836 296.242 41.7773 295.227 43.1836C294.211 44.5898 293.449 46.2305 292.941 48.1055C292.434 49.9414 292.18 51.9531 292.18 54.1406ZM382.824 4.6875H397.707L419.621 67.3242L441.535 4.6875H456.418L425.598 90H413.645L382.824 4.6875ZM374.797 4.6875H389.621L392.316 65.7422V90H374.797V4.6875ZM449.621 4.6875H464.504V90H446.926V65.7422L449.621 4.6875ZM508.039 91.1719C503.117 91.1719 498.703 90.3906 494.797 88.8281C490.891 87.2266 487.57 85.0195 484.836 82.207C482.141 79.3945 480.07 76.1328 478.625 72.4219C477.18 68.6719 476.457 64.6875 476.457 60.4688V58.125C476.457 53.3203 477.141 48.9258 478.508 44.9414C479.875 40.957 481.828 37.5 484.367 34.5703C486.945 31.6406 490.07 29.3945 493.742 27.832C497.414 26.2305 501.555 25.4297 506.164 25.4297C510.656 25.4297 514.641 26.1719 518.117 27.6562C521.594 29.1406 524.504 31.25 526.848 33.9844C529.23 36.7188 531.027 40 532.238 43.8281C533.449 47.6172 534.055 51.8359 534.055 56.4844V63.5156H483.664V52.2656H517.473V50.9766C517.473 48.6328 517.043 46.543 516.184 44.707C515.363 42.832 514.113 41.3477 512.434 40.2539C510.754 39.1602 508.605 38.6133 505.988 38.6133C503.762 38.6133 501.848 39.1016 500.246 40.0781C498.645 41.0547 497.336 42.4219 496.32 44.1797C495.344 45.9375 494.602 48.0078 494.094 50.3906C493.625 52.7344 493.391 55.3125 493.391 58.125V60.4688C493.391 63.0078 493.742 65.3516 494.445 67.5C495.188 69.6484 496.223 71.5039 497.551 73.0664C498.918 74.6289 500.559 75.8398 502.473 76.6992C504.426 77.5586 506.633 77.9883 509.094 77.9883C512.141 77.9883 514.973 77.4023 517.59 76.2305C520.246 75.0195 522.531 73.2031 524.445 70.7812L532.648 79.6875C531.32 81.6016 529.504 83.4375 527.199 85.1953C524.934 86.9531 522.199 88.3984 518.996 89.5312C515.793 90.625 512.141 91.1719 508.039 91.1719ZM560.129 0V90H543.254V0H560.129ZM557.727 56.0742H553.098C553.137 51.6602 553.723 47.5977 554.855 43.8867C555.988 40.1367 557.609 36.8945 559.719 34.1602C561.828 31.3867 564.348 29.2383 567.277 27.7148C570.246 26.1914 573.527 25.4297 577.121 25.4297C580.246 25.4297 583.078 25.8789 585.617 26.7773C588.195 27.6367 590.402 29.043 592.238 30.9961C594.113 32.9102 595.559 35.4297 596.574 38.5547C597.59 41.6797 598.098 45.4688 598.098 49.9219V90H581.105V49.8047C581.105 46.9922 580.695 44.7852 579.875 43.1836C579.094 41.543 577.941 40.3906 576.418 39.7266C574.934 39.0234 573.098 38.6719 570.91 38.6719C568.488 38.6719 566.418 39.1211 564.699 40.0195C563.02 40.918 561.672 42.168 560.656 43.7695C559.641 45.332 558.898 47.168 558.43 49.2773C557.961 51.3867 557.727 53.6523 557.727 56.0742ZM627.805 40.4297V90H610.93V26.6016H626.809L627.805 40.4297ZM646.906 26.1914L646.613 41.8359C645.793 41.7188 644.797 41.6211 643.625 41.543C642.492 41.4258 641.457 41.3672 640.52 41.3672C638.137 41.3672 636.066 41.6797 634.309 42.3047C632.59 42.8906 631.145 43.7695 629.973 44.9414C628.84 46.1133 627.98 47.5391 627.395 49.2188C626.848 50.8984 626.535 52.8125 626.457 54.9609L623.059 53.9062C623.059 49.8047 623.469 46.0352 624.289 42.5977C625.109 39.1211 626.301 36.0938 627.863 33.5156C629.465 30.9375 631.418 28.9453 633.723 27.5391C636.027 26.1328 638.664 25.4297 641.633 25.4297C642.57 25.4297 643.527 25.5078 644.504 25.6641C645.48 25.7812 646.281 25.957 646.906 26.1914ZM671.398 40.1367V90H654.523V26.6016H670.344L671.398 40.1367ZM668.938 56.0742H664.367C664.367 51.3867 664.973 47.168 666.184 43.418C667.395 39.6289 669.094 36.4062 671.281 33.75C673.469 31.0547 676.066 29.0039 679.074 27.5977C682.121 26.1523 685.52 25.4297 689.27 25.4297C692.238 25.4297 694.953 25.8594 697.414 26.7188C699.875 27.5781 701.984 28.9453 703.742 30.8203C705.539 32.6953 706.906 35.1758 707.844 38.2617C708.82 41.3477 709.309 45.1172 709.309 49.5703V90H692.316V49.5117C692.316 46.6992 691.926 44.5117 691.145 42.9492C690.363 41.3867 689.211 40.293 687.688 39.668C686.203 39.0039 684.367 38.6719 682.18 38.6719C679.914 38.6719 677.941 39.1211 676.262 40.0195C674.621 40.918 673.254 42.168 672.16 43.7695C671.105 45.332 670.305 47.168 669.758 49.2773C669.211 51.3867 668.938 53.6523 668.938 56.0742ZM719.445 58.9453V57.7148C719.445 53.0664 720.109 48.7891 721.438 44.8828C722.766 40.9375 724.699 37.5195 727.238 34.6289C729.777 31.7383 732.902 29.4922 736.613 27.8906C740.324 26.25 744.582 25.4297 749.387 25.4297C754.191 25.4297 758.469 26.25 762.219 27.8906C765.969 29.4922 769.113 31.7383 771.652 34.6289C774.23 37.5195 776.184 40.9375 777.512 44.8828C778.84 48.7891 779.504 53.0664 779.504 57.7148V58.9453C779.504 63.5547 778.84 67.832 777.512 71.7773C776.184 75.6836 774.23 79.1016 771.652 82.0312C769.113 84.9219 765.988 87.168 762.277 88.7695C758.566 90.3711 754.309 91.1719 749.504 91.1719C744.699 91.1719 740.422 90.3711 736.672 88.7695C732.961 87.168 729.816 84.9219 727.238 82.0312C724.699 79.1016 722.766 75.6836 721.438 71.7773C720.109 67.832 719.445 63.5547 719.445 58.9453ZM736.32 57.7148V58.9453C736.32 61.6016 736.555 64.082 737.023 66.3867C737.492 68.6914 738.234 70.7227 739.25 72.4805C740.305 74.1992 741.672 75.5469 743.352 76.5234C745.031 77.5 747.082 77.9883 749.504 77.9883C751.848 77.9883 753.859 77.5 755.539 76.5234C757.219 75.5469 758.566 74.1992 759.582 72.4805C760.598 70.7227 761.34 68.6914 761.809 66.3867C762.316 64.082 762.57 61.6016 762.57 58.9453V57.7148C762.57 55.1367 762.316 52.7148 761.809 50.4492C761.34 48.1445 760.578 46.1133 759.523 44.3555C758.508 42.5586 757.16 41.1523 755.48 40.1367C753.801 39.1211 751.77 38.6133 749.387 38.6133C747.004 38.6133 744.973 39.1211 743.293 40.1367C741.652 41.1523 740.305 42.5586 739.25 44.3555C738.234 46.1133 737.492 48.1445 737.023 50.4492C736.555 52.7148 736.32 55.1367 736.32 57.7148ZM787.18 58.9453V57.7148C787.18 53.0664 787.844 48.7891 789.172 44.8828C790.5 40.9375 792.434 37.5195 794.973 34.6289C797.512 31.7383 800.637 29.4922 804.348 27.8906C808.059 26.25 812.316 25.4297 817.121 25.4297C821.926 25.4297 826.203 26.25 829.953 27.8906C833.703 29.4922 836.848 31.7383 839.387 34.6289C841.965 37.5195 843.918 40.9375 845.246 44.8828C846.574 48.7891 847.238 53.0664 847.238 57.7148V58.9453C847.238 63.5547 846.574 67.832 845.246 71.7773C843.918 75.6836 841.965 79.1016 839.387 82.0312C836.848 84.9219 833.723 87.168 830.012 88.7695C826.301 90.3711 822.043 91.1719 817.238 91.1719C812.434 91.1719 808.156 90.3711 804.406 88.7695C800.695 87.168 797.551 84.9219 794.973 82.0312C792.434 79.1016 790.5 75.6836 789.172 71.7773C787.844 67.832 787.18 63.5547 787.18 58.9453ZM804.055 57.7148V58.9453C804.055 61.6016 804.289 64.082 804.758 66.3867C805.227 68.6914 805.969 70.7227 806.984 72.4805C808.039 74.1992 809.406 75.5469 811.086 76.5234C812.766 77.5 814.816 77.9883 817.238 77.9883C819.582 77.9883 821.594 77.5 823.273 76.5234C824.953 75.5469 826.301 74.1992 827.316 72.4805C828.332 70.7227 829.074 68.6914 829.543 66.3867C830.051 64.082 830.305 61.6016 830.305 58.9453V57.7148C830.305 55.1367 830.051 52.7148 829.543 50.4492C829.074 48.1445 828.312 46.1133 827.258 44.3555C826.242 42.5586 824.895 41.1523 823.215 40.1367C821.535 39.1211 819.504 38.6133 817.121 38.6133C814.738 38.6133 812.707 39.1211 811.027 40.1367C809.387 41.1523 808.039 42.5586 806.984 44.3555C805.969 46.1133 805.227 48.1445 804.758 50.4492C804.289 52.7148 804.055 55.1367 804.055 57.7148ZM891.887 72.4805C891.887 71.2695 891.535 70.1758 890.832 69.1992C890.129 68.2227 888.82 67.3242 886.906 66.5039C885.031 65.6445 882.316 64.8633 878.762 64.1602C875.559 63.457 872.57 62.5781 869.797 61.5234C867.062 60.4297 864.68 59.1211 862.648 57.5977C860.656 56.0742 859.094 54.2773 857.961 52.207C856.828 50.0977 856.262 47.6953 856.262 45C856.262 42.3438 856.828 39.8438 857.961 37.5C859.133 35.1562 860.793 33.0859 862.941 31.2891C865.129 29.4531 867.785 28.0273 870.91 27.0117C874.074 25.957 877.629 25.4297 881.574 25.4297C887.082 25.4297 891.809 26.3086 895.754 28.0664C899.738 29.8242 902.785 32.2461 904.895 35.332C907.043 38.3789 908.117 41.8555 908.117 45.7617H891.242C891.242 44.1211 890.891 42.6562 890.188 41.3672C889.523 40.0391 888.469 39.0039 887.023 38.2617C885.617 37.4805 883.781 37.0898 881.516 37.0898C879.641 37.0898 878.02 37.4219 876.652 38.0859C875.285 38.7109 874.23 39.5703 873.488 40.6641C872.785 41.7188 872.434 42.8906 872.434 44.1797C872.434 45.1562 872.629 46.0352 873.02 46.8164C873.449 47.5586 874.133 48.2422 875.07 48.8672C876.008 49.4922 877.219 50.0781 878.703 50.625C880.227 51.1328 882.102 51.6016 884.328 52.0312C888.898 52.9688 892.98 54.1992 896.574 55.7227C900.168 57.207 903.02 59.2383 905.129 61.8164C907.238 64.3555 908.293 67.6953 908.293 71.8359C908.293 74.6484 907.668 77.2266 906.418 79.5703C905.168 81.9141 903.371 83.9648 901.027 85.7227C898.684 87.4414 895.871 88.7891 892.59 89.7656C889.348 90.7031 885.695 91.1719 881.633 91.1719C875.734 91.1719 870.734 90.1172 866.633 88.0078C862.57 85.8984 859.484 83.2227 857.375 79.9805C855.305 76.6992 854.27 73.3398 854.27 69.9023H870.266C870.344 72.207 870.93 74.0625 872.023 75.4688C873.156 76.875 874.582 77.8906 876.301 78.5156C878.059 79.1406 879.953 79.4531 881.984 79.4531C884.172 79.4531 885.988 79.1602 887.434 78.5742C888.879 77.9492 889.973 77.1289 890.715 76.1133C891.496 75.0586 891.887 73.8477 891.887 72.4805ZM935.715 0V90H918.84V0H935.715ZM933.312 56.0742H928.684C928.723 51.6602 929.309 47.5977 930.441 43.8867C931.574 40.1367 933.195 36.8945 935.305 34.1602C937.414 31.3867 939.934 29.2383 942.863 27.7148C945.832 26.1914 949.113 25.4297 952.707 25.4297C955.832 25.4297 958.664 25.8789 961.203 26.7773C963.781 27.6367 965.988 29.043 967.824 30.9961C969.699 32.9102 971.145 35.4297 972.16 38.5547C973.176 41.6797 973.684 45.4688 973.684 49.9219V90H956.691V49.8047C956.691 46.9922 956.281 44.7852 955.461 43.1836C954.68 41.543 953.527 40.3906 952.004 39.7266C950.52 39.0234 948.684 38.6719 946.496 38.6719C944.074 38.6719 942.004 39.1211 940.285 40.0195C938.605 40.918 937.258 42.168 936.242 43.7695C935.227 45.332 934.484 47.168 934.016 49.2773C933.547 51.3867 933.312 53.6523 933.312 56.0742ZM987.336 81.8555C987.336 79.3555 988.195 77.2656 989.914 75.5859C991.672 73.9062 993.996 73.0664 996.887 73.0664C999.777 73.0664 1002.08 73.9062 1003.8 75.5859C1005.56 77.2656 1006.44 79.3555 1006.44 81.8555C1006.44 84.3555 1005.56 86.4453 1003.8 88.125C1002.08 89.8047 999.777 90.6445 996.887 90.6445C993.996 90.6445 991.672 89.8047 989.914 88.125C988.195 86.4453 987.336 84.3555 987.336 81.8555Z" fill="url(#paint0_radial_382_108)"/>
<defs>
<radialGradient id="paint0_radial_382_108" cx="0" cy="0" r="1" gradientUnits="userSpaceOnUse" gradientTransform="translate(138.327 89.3158) rotate(-2.04081) scale(833.563 3218.72)">
<stop stop-color="#51FF96"/>
<stop offset="0.390625" stop-color="#09865E"/>
<stop offset="0.697917" stop-color="#35A3DF"/>
</radialGradient>
</defs>
</svg>
