<svg width="90" height="92" viewBox="0 0 90 92" fill="none" xmlns="http://www.w3.org/2000/svg">
<rect width="90" height="92" rx="11" fill="#E4E4E4"/>
<g clip-path="url(#clip0_203_73)">
<path d="M20 28.9427V31.8854H21.0271C21.8708 31.8854 22.075 31.8917 22.1771 31.9169C22.3479 31.9611 22.6896 32.1355 22.8646 32.2679C23.2646 32.5727 23.6125 33.0331 23.7167 33.4009C23.7479 33.5039 23.75 34.6579 23.7458 46.0735L23.7396 58.6326L23.6917 58.7524C23.4896 59.2569 22.8854 59.795 22.3021 59.9905C22.1583 60.0388 22.1417 60.0409 21.0792 60.0472L20 60.0535V62.9942V65.9369H27.5H35V62.9942V60.0514H33.125H31.25V47.0194V33.9873H31.3604H31.4729L32.3271 37.1445C32.7979 38.8828 34.7417 46.0714 36.6479 53.1192L40.1146 65.9369H43.5063C45.3708 65.9369 46.8958 65.9327 46.8958 65.9264C46.8958 65.918 55.5396 34.3657 55.6167 34.0966L55.6479 33.9873H55.7396H55.8333V47.0194V60.0514H53.9583H52.0833V62.9942V65.9369H61.0417H70V62.9942V60.0514H68.9646C67.7896 60.0514 67.7646 60.0472 67.4521 59.898C66.9083 59.6353 66.4125 59.1119 66.2833 58.6663C66.2521 58.5612 66.25 57.3883 66.25 46.0315C66.25 34.62 66.2521 33.5018 66.2833 33.3967C66.4271 32.9006 66.9667 32.2932 67.4896 32.0346C67.7917 31.8854 67.7875 31.8854 68.9563 31.8854H70V28.9427V26H60.65H51.3L48.1938 37.5543L45.0875 49.1108H45H44.9104L41.8354 37.5606L38.7604 26.0105L29.3792 26.0042L20 26V28.9427Z" fill="#75818D"/>
</g>
<defs>
<clipPath id="clip0_203_73">
<rect width="50" height="40" fill="white" transform="translate(20 26)"/>
</clipPath>
</defs>
</svg>
