<svg width="90" height="92" viewBox="0 0 90 92" fill="none" xmlns="http://www.w3.org/2000/svg">
<rect width="90" height="92" rx="11" fill="#DFFDFF"/>
<path fill-rule="evenodd" clip-rule="evenodd" d="M33.3388 21.0757C31.9914 21.1799 31.0389 21.6408 30.1053 22.6406C29.1235 23.6917 28.5289 25.1339 28.1967 27.2698C27.9974 28.5509 27.9988 31.2101 28.1997 32.8851C28.3243 33.9243 28.5746 35.431 28.7994 36.496L28.88 36.8777L27.7688 37.2635C26.2875 37.7778 25.3452 38.1626 24.1161 38.7551C21.8748 39.8355 20.276 40.9307 18.9947 42.2635C17.6021 43.7121 17 44.9961 17 46.5174C17 47.3665 17.1481 47.9913 17.5378 48.7868C18.8726 51.5115 22.6975 54.1006 27.9558 55.8391C28.4609 56.0061 28.8847 56.1518 28.8976 56.1629C28.9105 56.174 28.8191 56.7212 28.6944 57.379C28.239 59.7831 28.1185 60.9754 28.1171 63.0926C28.1156 65.2506 28.2661 66.4262 28.7237 67.8329C29.1313 69.0858 29.6117 69.9009 30.3999 70.6768C30.8231 71.0935 31.0477 71.2566 31.5167 71.488C32.4129 71.9302 32.7489 72.0002 33.972 72C34.7491 71.9998 35.155 71.9697 35.5553 71.8825C38.2948 71.2863 41.764 69.2435 44.9305 66.3622L45.5347 65.8124L46.102 66.3195C52.223 71.7903 57.834 73.4499 60.6983 70.6366C62.2374 69.1248 62.9774 66.6944 62.9757 63.1562C62.9749 61.202 62.8005 59.5254 62.3678 57.3115C62.2457 56.6865 62.1546 56.1688 62.1653 56.1609C62.1761 56.1531 62.6266 55.9959 63.1665 55.8115C67.7835 54.235 71.1397 52.1467 72.8787 49.7684C74.096 48.1035 74.3349 46.1433 73.533 44.3995C73.1674 43.6044 72.6957 42.9699 71.8179 42.092C70.5284 40.8024 69.2481 39.9297 67.0612 38.8498C65.7466 38.2006 64.5936 37.7267 63.0938 37.2188C62.5591 37.0377 62.111 36.881 62.0981 36.8706C62.0851 36.8602 62.163 36.3994 62.2711 35.8466C62.7401 33.4482 62.8731 32.1592 62.8771 29.974C62.8805 28.1707 62.8324 27.5839 62.5851 26.4109C62.2906 25.0142 61.7251 23.6885 61.072 22.8638C58.3459 19.4218 52.7254 20.8083 46.2606 26.5175L45.4719 27.214L44.6141 26.4574C41.2684 23.506 37.9718 21.6462 35.2386 21.1679C34.5588 21.049 34.0218 21.0229 33.3388 21.0757ZM34.8538 23.8093C36.8941 24.13 39.8578 25.8473 42.8097 28.4193L43.5949 29.1035L43.169 29.5554C42.0522 30.7401 40.7072 32.3543 39.5197 33.9349C38.8637 34.8081 38.7442 34.9371 38.5903 34.9371C37.9332 34.9371 34.4428 35.5018 32.6547 35.8974C32.0142 36.0391 31.4797 36.1446 31.467 36.1317C31.4185 36.0831 31.0587 34.1675 30.9378 33.3145C30.3516 29.1794 30.8102 25.7153 32.1237 24.3557C32.697 23.7623 33.5142 23.5988 34.8538 23.8093ZM58.1952 23.889C59.1221 24.3157 59.73 25.4454 60.0828 27.3971C60.2043 28.0693 60.2206 28.3814 60.2191 30.0059C60.2178 31.5506 60.1945 32.0221 60.0764 32.9009C59.9213 34.0554 59.5659 36.0233 59.499 36.0977C59.4757 36.1236 58.9448 36.0314 58.3193 35.8928C56.8699 35.5715 54.9172 35.2383 53.3888 35.0515L52.1921 34.9052L51.7135 34.269C50.6438 32.8467 49.5298 31.4817 48.4995 30.3307C48.1895 29.9845 47.8126 29.5622 47.6618 29.3922L47.3877 29.0831L47.7384 28.761C50.224 26.4785 52.9075 24.7395 55.0365 24.0317C55.8621 23.7572 56.3565 23.6776 57.1186 23.6967C57.7223 23.7117 57.8659 23.7374 58.1952 23.889ZM46.4189 32.0261C46.9296 32.5948 47.6253 33.4036 47.9649 33.8236L48.5824 34.5871H45.4948C42.7698 34.5871 42.4132 34.5759 42.4584 34.4917C42.6059 34.2168 45.3778 30.9921 45.4666 30.9921C45.4798 30.9921 45.9083 31.4574 46.4189 32.0261ZM49.2342 37.3541C49.8438 37.3912 50.4311 37.4357 50.5393 37.453C50.7149 37.4812 50.8253 37.6203 51.5602 38.7401C52.4401 40.0806 53.238 41.3934 53.9865 42.7315C54.5858 43.803 55.8837 46.38 55.8837 46.4985C55.8837 46.6339 54.8454 48.7267 54.0906 50.1124C53.2856 51.5904 52.3571 53.1389 51.434 54.5429L50.7382 55.6011L50.1921 55.6418C47.1767 55.8669 42.5703 55.8593 40.6215 55.6261L40.2732 55.5845L39.5303 54.471C38.7592 53.3151 37.3678 51.0086 36.7094 49.7943C36.1365 48.738 35.112 46.6585 35.112 46.5522C35.112 46.422 36.4481 43.7601 37.0937 42.6043C37.9762 41.0242 39.128 39.1375 39.8768 38.0452C40.2304 37.5295 40.2708 37.4924 40.517 37.4585C40.7753 37.4228 42.5713 37.3092 43.5663 37.2656C44.4454 37.2271 48.0796 37.2839 49.2342 37.3541ZM36.7585 37.8873C36.7585 37.9002 36.5031 38.327 36.191 38.8358C35.4544 40.0366 34.8101 41.1657 34.1905 42.3412L33.692 43.2872L33.5777 43.0167C33.1544 42.0153 32.0938 38.8391 32.1604 38.7722C32.212 38.7203 33.7786 38.3866 35.0486 38.157C36.7383 37.8515 36.7585 37.8483 36.7585 37.8873ZM55.3457 38.0512C56.9285 38.3261 58.7001 38.7 58.7746 38.7749C58.8444 38.845 57.81 42.0257 57.4084 42.9756L57.2983 43.236L56.9941 42.6656C56.3634 41.4832 55.4549 39.9015 54.8314 38.9005C54.4764 38.3304 54.2045 37.864 54.2273 37.864C54.2501 37.8641 54.7534 37.9483 55.3457 38.0512ZM64.0676 40.4221C66.3598 41.3322 68.5227 42.6099 69.7936 43.8046C70.4647 44.4354 70.8328 44.9144 71.1312 45.5451C71.3367 45.9794 71.3654 46.0988 71.3654 46.5174C71.3654 46.936 71.3367 47.0554 71.1312 47.4897C70.155 49.5529 67.1027 51.5769 62.5115 53.2056C62.0294 53.3766 61.5828 53.5165 61.5192 53.5165C61.44 53.5165 61.3892 53.4512 61.3584 53.3097C61.1888 52.5293 60.0006 49.2239 59.2741 47.5115L58.8499 46.5117L59.3898 45.1943C60.1408 43.3619 61.0391 40.8264 61.3265 39.7285L61.3963 39.4615L62.3133 39.7755C62.8176 39.9482 63.6071 40.2392 64.0676 40.4221ZM30.1064 41.2363C30.6669 42.9271 31.2067 44.363 31.8156 45.7828L32.1418 46.5435L31.701 47.5962C30.9569 49.3729 30.3248 51.1085 29.8532 52.6697C29.7071 53.153 29.5812 53.5558 29.5732 53.565C29.5653 53.5741 29.191 53.4548 28.7415 53.2999C25.2357 52.092 22.7586 50.736 21.0651 49.0979C19.9449 48.0142 19.4675 47.009 19.6552 46.1294C20.1019 44.0368 23.4989 41.5958 28.3358 39.8916C28.9105 39.6891 29.4182 39.5295 29.4641 39.5368C29.5132 39.5446 29.7768 40.2421 30.1064 41.2363ZM44.3896 41.2633C43.1461 41.5524 42.0105 42.2634 41.2902 43.2039C40.4298 44.3273 40.0467 45.6704 40.1859 47.0751C40.4122 49.3591 42.0296 51.2046 44.2755 51.7418C44.7403 51.853 44.9749 51.8707 45.6878 51.8483C46.4443 51.8246 46.612 51.7978 47.1444 51.6159C48.8729 51.0252 50.1361 49.6962 50.6423 47.9358C50.7613 47.522 50.7847 47.2874 50.7837 46.5174C50.7823 45.4175 50.7013 45.0583 50.2453 44.1314C49.585 42.7887 48.3833 41.7779 46.9519 41.361C46.3431 41.1838 44.959 41.131 44.3896 41.2633ZM58.2941 52.5033C58.6054 53.4332 58.8601 54.2111 58.8601 54.2318C58.8601 54.3368 54.3454 55.2372 54.2582 55.1496C54.2437 55.135 54.5282 54.64 54.8903 54.0494C55.5629 52.9524 56.6291 51.0614 57.0543 50.211L57.2914 49.7369L57.5097 50.2746C57.6297 50.5704 57.9827 51.5733 58.2941 52.5033ZM34.1321 50.6319C34.7025 51.715 35.3804 52.8931 36.136 54.1141C36.4801 54.6702 36.7499 55.137 36.7356 55.1515C36.6821 55.2052 33.9691 54.7075 32.5794 54.3889C32.3493 54.3361 32.2249 54.2738 32.2116 54.2044C32.18 54.0391 33.6025 49.8261 33.69 49.8261C33.6998 49.8261 33.8988 50.1887 34.1321 50.6319ZM32.7508 57.174C34.0247 57.4529 36.0136 57.7936 37.3918 57.9691C37.9665 58.0422 38.5257 58.116 38.6345 58.1331C38.8027 58.1595 38.9416 58.3091 39.5629 59.1331C40.5833 60.4864 41.4777 61.5739 42.6306 62.8632L43.6203 63.9699L43.34 64.2172C41.2529 66.0584 39.5715 67.2846 37.9617 68.1396C35.6228 69.3818 33.6089 69.7035 32.515 69.0097C30.9565 68.0212 30.3437 64.207 31.0021 59.593C31.1217 58.7547 31.4092 57.1487 31.4727 56.964C31.4888 56.9173 31.5509 56.8954 31.6127 56.9146C31.6738 56.9336 32.186 57.0503 32.7508 57.174ZM59.6766 57.541C60.1289 59.7052 60.2794 61.1024 60.278 63.1244C60.2771 64.4936 60.2555 64.8723 60.14 65.55C59.8209 67.4223 59.2006 68.6424 58.3468 69.0771C57.3166 69.6017 55.4958 69.2965 53.4139 68.2505C51.6887 67.3837 50.0743 66.2605 48.175 64.6059L47.4007 63.9313L47.8267 63.4795C48.9397 62.2987 50.2885 60.6805 51.465 59.1144L52.207 58.1267L53.2063 58.011C54.5728 57.8527 56.9588 57.4458 58.2585 57.1493C58.8506 57.0143 59.3813 56.9004 59.4377 56.8963C59.518 56.8904 59.5698 57.0302 59.6766 57.541ZM48.5518 58.5114C48.4106 58.7545 47.1654 60.2467 46.305 61.2039L45.5434 62.0511L45.2923 61.8083C44.8267 61.358 42.9007 59.1223 42.4522 58.5114C42.4212 58.4692 43.4471 58.4477 45.4971 58.4477C47.5407 58.4477 48.5763 58.4693 48.5518 58.5114Z" fill="#00A8B3"/>
</svg>
