<svg width="90" height="92" viewBox="0 0 90 92" fill="none" xmlns="http://www.w3.org/2000/svg">
<rect width="90" height="92" rx="11" fill="#E7DFFF"/>
<path fill-rule="evenodd" clip-rule="evenodd" d="M44.3895 22.0247C44.0105 22.0854 43.5836 22.217 43.3143 22.356C42.9938 22.5214 26.0348 32.4699 25.7044 32.6863C25.3997 32.8859 25.0711 33.2075 24.8028 33.5687C24.5394 33.9233 24.2038 34.6218 24.0892 35.0539L24 35.3906V45.9854V56.5803L24.0879 56.931C24.2726 57.6674 24.5864 58.2405 25.1045 58.7873C25.2846 58.9774 25.5482 59.2124 25.6904 59.3095C25.9788 59.5066 42.9124 69.4471 43.318 69.6574C43.4595 69.7307 43.7489 69.8378 43.9612 69.8953C44.3045 69.9884 44.4185 70 44.9904 70C45.5623 70 45.6763 69.9884 46.0195 69.8953C46.2319 69.8378 46.5213 69.7306 46.6627 69.6571C46.9823 69.4911 63.951 59.5379 64.2462 59.3433C64.5263 59.1586 65.0679 58.6234 65.2786 58.323C65.4841 58.03 65.6698 57.6583 65.7931 57.2932C66.0081 56.6566 65.9998 57.1122 66 46.018C66.0002 39.0256 65.9871 35.6742 65.959 35.4628C65.8367 34.5457 65.2672 33.523 64.5297 32.8961C64.3186 32.7167 62.0915 31.3907 55.6471 27.6073C50.9167 24.8302 46.9028 22.4821 46.7275 22.3893C46.2671 22.1457 45.7538 22.0218 45.1268 22.003C44.8481 21.9946 44.5163 22.0044 44.3895 22.0247ZM45.8674 31.8461C49.0619 32.0574 51.7239 33.174 54.17 35.3287C54.4406 35.567 55.2521 36.4064 55.562 36.7684C56.0338 37.3196 56.8366 38.4337 57.0295 38.8051C57.0797 38.9016 57.1313 38.8662 55.8461 39.6179C55.5674 39.7809 54.629 40.3327 53.7607 40.8442C51.6306 42.0989 51.078 42.4208 51.0542 42.4208C51.0432 42.4208 51.008 42.3695 50.9761 42.3068C50.8401 42.0394 50.2875 41.3404 49.9052 40.952C48.7894 39.8183 47.5018 39.1663 45.9192 38.9336C45.5102 38.8735 44.4525 38.8845 44.0073 38.9535C42.9533 39.117 41.9821 39.496 41.1285 40.0768C39.3137 41.3117 38.2271 43.2398 38.0113 45.6082C37.9163 46.6505 38.1596 47.9419 38.653 49.0146C39.5324 50.9269 41.2482 52.3721 43.2881 52.919C46.0795 53.6673 48.826 52.6461 50.6449 50.1838C50.7977 49.9768 50.9479 49.7585 50.9785 49.6986C51.0091 49.6387 51.0436 49.5897 51.0551 49.5897C51.075 49.5897 52.3311 50.3214 52.7862 50.5981C52.9042 50.6698 53.3514 50.9335 53.7802 51.1841C54.6136 51.6712 56.3255 52.6773 56.7914 52.9538C56.9468 53.046 57.074 53.1299 57.074 53.1402C57.074 53.1739 56.6101 53.9096 56.348 54.2915C55.1305 56.0661 53.471 57.5763 51.6677 58.551C49.5046 59.7202 47.2966 60.249 44.815 60.1921C42.566 60.1405 40.5954 59.642 38.6019 58.6203C34.7151 56.6283 32.0709 53.0201 31.2729 48.6193C30.7262 45.6045 31.057 42.6866 32.2465 40.0317C33.2659 37.7563 34.9856 35.7265 37.1048 34.2976C37.3925 34.1036 37.6352 33.9449 37.6443 33.9449C37.6533 33.9449 37.761 33.8798 37.8835 33.8002C38.4221 33.4501 39.9082 32.7805 40.7281 32.5186C41.9763 32.1198 43.2975 31.8846 44.5811 31.8327C45.1962 31.8078 45.3069 31.809 45.8674 31.8461ZM55.2028 42.0544C55.2028 42.0926 55.168 42.4535 55.1255 42.8565C55.0831 43.2595 55.048 43.6382 55.0477 43.6981L55.047 43.8071H55.7052H56.3635L56.3864 43.6387C56.399 43.5462 56.4365 43.1941 56.4697 42.8565C56.5028 42.5188 56.5392 42.1847 56.5504 42.1139L56.5708 41.9851H57.1349H57.6991L57.6797 42.0743C57.6691 42.1232 57.6336 42.4485 57.6008 42.7971C57.568 43.1456 57.531 43.5149 57.5185 43.6177L57.4957 43.8047L58.0157 43.8158L58.5357 43.8269L58.5465 44.3715L58.5574 44.916H57.9716C57.6494 44.916 57.3855 44.9294 57.3851 44.9458C57.3847 44.9621 57.3499 45.2963 57.3078 45.6884C57.2657 46.0805 57.231 46.4414 57.2306 46.4904C57.2299 46.5781 57.2376 46.5795 57.7171 46.5795H58.2044V47.134V47.6885H57.6617H57.1191L57.0984 47.7974C57.087 47.8574 57.0378 48.3118 56.9891 48.8074L56.9006 49.7085H56.3222H55.7439L55.767 49.5402C55.8112 49.2178 55.9436 47.9152 55.9436 47.8022V47.6885H55.2879H54.6322L54.5454 48.5698C54.4977 49.0545 54.4488 49.5089 54.4367 49.5798L54.4147 49.7085H53.8538C53.3456 49.7085 53.293 49.702 53.2933 49.6392C53.2934 49.6011 53.3373 49.1699 53.3907 48.6811C53.4441 48.1923 53.4879 47.7689 53.4879 47.7404C53.4879 47.7003 53.3729 47.6885 52.9811 47.6885H52.4744V47.134V46.5795H53.0378H53.6013L53.6216 46.4508C53.6549 46.2396 53.7607 45.1627 53.7607 45.0347V44.916H53.2735H52.7862V44.3616V43.8071H53.3445H53.9028L53.9883 42.9852C54.0354 42.5332 54.0735 42.1232 54.0732 42.0743C54.0726 41.9859 54.0774 41.9851 54.6378 41.9851C55.1501 41.9851 55.203 41.9916 55.2028 42.0544ZM54.913 44.9656C54.9049 44.9928 54.8696 45.327 54.8346 45.7082C54.7996 46.0894 54.7626 46.4414 54.7523 46.4904L54.7337 46.5795H55.4095H56.0854L56.1532 45.8963C56.1905 45.5206 56.231 45.1463 56.2432 45.0646L56.2654 44.916H55.5965C55.0953 44.916 54.924 44.9284 54.913 44.9656Z" fill="#7648FF"/>
</svg>
