<svg width="90" height="92" viewBox="0 0 90 92" fill="none" xmlns="http://www.w3.org/2000/svg">
<rect width="90" height="92" rx="11" fill="#BEE2F5"/>
<path d="M31.7144 63.3324V51.5051C32.3452 51.5666 33.0892 51.5986 33.9012 51.5986C38.85 51.5986 42.8513 50.2932 45.4739 47.822C47.6222 45.7811 48.8059 42.7404 48.8059 39.2605C48.8059 35.8806 47.3923 32.8245 44.93 30.8774C42.5094 28.9413 38.9524 28 34.0556 28C29.8138 28 26.2294 28.244 23.4011 28.7255C23.1694 28.7646 23 28.9654 23 29.2004V63.3324C23 63.5986 23.2157 63.8143 23.4819 63.8143H31.2325C31.4987 63.8143 31.7144 63.5986 31.7144 63.3324ZM31.7144 44.5086V35.077C32.1876 34.9863 33.0763 34.8662 34.4658 34.8662C38.0413 34.8662 40.0919 36.5427 40.0919 39.4656C40.0919 42.699 37.7587 44.6297 33.8499 44.6297C32.9123 44.6297 32.2444 44.5927 31.7144 44.5086Z" fill="#4B8BC6"/>
<path d="M62.8511 47.531C59.6578 46.4135 59.1191 45.8814 59.1191 45.1116C59.1191 43.7445 60.682 43.5404 61.6141 43.5404C63.5932 43.5404 65.6576 44.2828 66.8241 44.9184C66.9548 44.9896 67.1101 44.9965 67.2468 44.9373C67.3826 44.878 67.4842 44.7592 67.5212 44.6155L68.9072 39.2266C68.9637 39.0067 68.859 38.7772 68.6561 38.6758C67.2173 37.9565 64.5445 37.1876 61.3572 37.1876C55.0596 37.1876 50.6612 40.7628 50.6612 45.8735C50.6186 48.367 51.8788 51.7808 58.1251 53.8834C61.1592 54.8949 61.4913 55.4205 61.4913 56.3007C61.4913 56.702 61.4913 57.9232 58.637 57.9232C56.4988 57.9232 53.6119 56.9736 52.1633 56.0939C52.0318 56.0143 51.8711 56.0018 51.7292 56.0604C51.5877 56.1188 51.4823 56.2412 51.4453 56.39L50.0597 61.9849C50.0069 62.1982 50.1052 62.4201 50.2983 62.5245C52.4181 63.6702 55.4576 64.3274 58.637 64.3274C65.646 64.3274 70.0001 61.0354 70.0001 55.7297C69.9445 51.7417 67.7388 49.2129 62.8511 47.531Z" fill="#4B8BC6"/>
</svg>
