<svg width="90" height="92" viewBox="0 0 90 92" fill="none" xmlns="http://www.w3.org/2000/svg">
<rect width="90" height="92" rx="11" fill="#FFE9DC"/>
<path d="M37.6685 47.5C37.6685 43.1739 41.1747 39.666 45.5009 39.666C49.8272 39.666 53.3352 43.1739 53.3352 47.5C53.3352 51.8261 49.8272 55.334 45.5009 55.334C41.1747 55.334 37.6685 51.8261 37.6685 47.5ZM33.4335 47.5C33.4335 54.1646 38.8361 59.567 45.5009 59.567C52.1658 59.567 57.5684 54.1646 57.5684 47.5C57.5684 40.8354 52.1658 35.433 45.5009 35.433C38.8361 35.433 33.4335 40.8354 33.4335 47.5ZM55.226 34.9546C55.2254 36.512 56.4875 37.7751 58.045 37.7757C59.6025 37.7763 60.8656 36.5143 60.8662 34.9568C60.8669 33.3994 59.6048 32.1363 58.0472 32.1357H58.0461C56.4894 32.1364 55.2274 33.3979 55.226 34.9546ZM36.0066 66.6284C33.7153 66.5241 32.47 66.1425 31.6423 65.82C30.5451 65.3929 29.7623 64.8842 28.9392 64.0622C28.1161 63.2403 27.6066 62.4582 27.1813 61.361C26.8587 60.5339 26.477 59.2882 26.3729 56.997C26.2589 54.5199 26.2362 53.7758 26.2362 47.5002C26.2362 41.2246 26.2608 40.4825 26.3729 38.0034C26.4772 35.7122 26.8617 34.469 27.1813 33.6393C27.6085 32.5422 28.1172 31.7593 28.9392 30.9363C29.7611 30.1132 30.5433 29.6037 31.6423 29.1785C32.4696 28.8559 33.7153 28.4742 36.0066 28.3701C38.4837 28.2561 39.2279 28.2334 45.5009 28.2334C51.774 28.2334 52.5189 28.258 54.9981 28.3701C57.2894 28.4744 58.5327 28.8589 59.3624 29.1785C60.4596 29.6037 61.2424 30.1143 62.0655 30.9363C62.8886 31.7582 63.3962 32.5422 63.8234 33.6393C64.146 34.4665 64.5277 35.7122 64.6318 38.0034C64.7458 40.4825 64.7685 41.2246 64.7685 47.5002C64.7685 53.7758 64.7458 54.5179 64.6318 56.997C64.5275 59.2882 64.144 60.5335 63.8234 61.361C63.3962 62.4582 62.8875 63.2411 62.0655 64.0622C61.2436 64.8834 60.4596 65.3929 59.3624 65.82C58.5351 66.1426 57.2894 66.5243 54.9981 66.6284C52.521 66.7424 51.7768 66.7651 45.5009 66.7651C39.2251 66.7651 38.483 66.7424 36.0066 66.6284ZM35.812 24.1423C33.3102 24.2562 31.6006 24.6529 30.1076 25.2338C28.5615 25.8338 27.2526 26.6386 25.9446 27.9444C24.6366 29.2503 23.8338 30.5612 23.2339 32.1073C22.653 33.6012 22.2563 35.3097 22.1423 37.8114C22.0265 40.3171 22 41.1182 22 47.5C22 53.8818 22.0265 54.6829 22.1423 57.1886C22.2563 59.6905 22.653 61.3988 23.2339 62.8927C23.8338 64.4379 24.6368 65.7503 25.9446 67.0556C27.2524 68.3609 28.5615 69.1646 30.1076 69.7662C31.6034 70.3471 33.3102 70.7438 35.812 70.8577C38.3191 70.9716 39.1188 71 45.5009 71C51.883 71 52.6841 70.9735 55.1899 70.8577C57.6919 70.7438 59.4003 70.3471 60.8942 69.7662C62.4395 69.1646 63.7493 68.3614 65.0573 67.0556C66.3653 65.7497 67.1664 64.4379 67.768 62.8927C68.3489 61.3988 68.7475 59.6903 68.8596 57.1886C68.9735 54.681 69 53.8818 69 47.5C69 41.1182 68.9735 40.3171 68.8596 37.8114C68.7456 35.3095 68.3489 33.6002 67.768 32.1073C67.1664 30.5621 66.3632 29.2523 65.0573 27.9444C63.7514 26.6365 62.4395 25.8338 60.8961 25.2338C59.4003 24.6529 57.6917 24.2544 55.1918 24.1423C52.686 24.0284 51.8849 24 45.5028 24C39.1207 24 38.3191 24.0265 35.812 24.1423Z" fill="#FF6B00"/>
</svg>
