<svg width="90" height="92" viewBox="0 0 90 92" fill="none" xmlns="http://www.w3.org/2000/svg">
<rect width="90" height="92" rx="11" fill="#F5DFBE"/>
<g clip-path="url(#clip0_203_51)">
<path d="M20.5395 67.7195H29.6234C29.8658 67.7195 30.0787 67.5578 30.1437 67.324L32.7929 57.7736H43.0774L45.9515 67.3352C46.0202 67.5634 46.2303 67.7195 46.4686 67.7195H55.8971C55.8988 67.7195 55.9005 67.7195 55.9014 67.7195C56.1995 67.7195 56.4411 67.4779 56.4411 67.1798C56.4411 67.1001 56.4243 67.0246 56.393 66.9566L44.3971 28.2708C44.3272 28.045 44.118 27.8909 43.8814 27.8909H32.3829C32.1455 27.8909 31.936 28.0459 31.8667 28.2728L20.0235 67.022C19.9739 67.1856 20.0041 67.3633 20.1058 67.5008C20.2077 67.6384 20.3683 67.7195 20.5395 67.7195ZM41.4929 50.1399H34.3592L36.4672 42.6048C36.85 41.247 37.2118 39.6404 37.5618 38.0866C37.6419 37.7297 37.7207 37.3795 37.7988 37.0371C38.2619 38.8986 38.7712 40.9096 39.2818 42.6104L41.4929 50.1399Z" fill="#D18F0D"/>
<path d="M60.434 38.5269C60.1359 38.5269 59.8943 38.7684 59.8943 39.0666V67.1799C59.8943 67.478 60.1359 67.7196 60.434 67.7196H69.1727C69.4708 67.7196 69.7124 67.478 69.7124 67.1799V39.0666C69.7124 38.7684 69.4708 38.5269 69.1727 38.5269H60.434Z" fill="#D18F0D"/>
<path d="M64.746 36.1563C67.7905 36.1563 70 34.0917 70 31.235C69.9337 28.3179 67.7968 26.2805 64.8034 26.2805C63.2754 26.2805 61.9185 26.8077 60.9828 27.7654C60.1048 28.6635 59.6369 29.8997 59.6641 31.2471C59.6363 32.5518 60.1052 33.7657 60.9852 34.6669C61.923 35.6274 63.2587 36.1563 64.746 36.1563Z" fill="#D18F0D"/>
</g>
<defs>
<clipPath id="clip0_203_51">
<rect width="50" height="50" fill="white" transform="translate(20 22)"/>
</clipPath>
</defs>
</svg>
