<svg width="90" height="92" viewBox="0 0 90 92" fill="none" xmlns="http://www.w3.org/2000/svg">
<rect width="90" height="92" rx="11" fill="#D8FCC7"/>
<path fill-rule="evenodd" clip-rule="evenodd" d="M44.6742 20.132C44.6611 20.2221 44.6385 20.4035 44.624 20.5353C44.534 21.3549 44.0051 22.2224 43.1964 22.8772C37.0381 27.8634 32.8867 36.3197 32.1142 45.4519C31.631 51.1657 32.68 56.3093 35.2816 60.9812C35.4018 61.1968 35.554 61.4714 35.6202 61.5911C37.0764 64.2299 39.7473 67.4777 42.2832 69.6934C42.8311 70.172 43.9191 71.0219 43.9551 70.9996C44.2065 70.8431 44.7304 67.7422 44.9926 64.8581C45.0943 63.74 45.1143 63.6211 45.1205 64.0957C45.1576 66.8998 45.8316 69.467 46.7417 70.2712C47.0856 70.5748 47.0865 70.5748 47.5525 70.2231C49.6664 68.6279 52.198 65.8378 53.6304 63.5241C54.4312 62.2308 55.3849 60.433 55.7419 59.5437C55.8283 59.328 55.9672 58.985 56.05 58.7813C57.1271 56.139 57.9227 52.2716 57.941 49.5902C57.9427 49.3386 57.9615 49.0346 57.983 48.9148C58.0063 48.7847 58.0056 48.4165 57.9813 48.0001C57.9589 47.6168 57.9194 46.9407 57.8934 46.4974C57.8158 45.1663 57.5979 43.4128 57.4203 42.6857C57.3733 42.494 57.2962 42.1706 57.2486 41.9669C57.1193 41.4113 56.7156 39.9726 56.5096 39.3315C56.312 38.7174 55.836 37.3379 55.7726 37.1971C55.7512 37.1491 55.6374 36.865 55.5195 36.5655C54.175 33.145 51.9525 29.4619 49.7495 27.004C49.6852 26.9321 49.5945 26.8289 49.5478 26.7747C49.2485 26.4259 48.6198 25.7457 48.0078 25.1087C47.7428 24.8329 47.3463 24.4115 47.1268 24.1721C46.4578 23.4433 45.5927 21.9562 44.9281 20.3927C44.7378 19.9454 44.7059 19.9126 44.6742 20.132Z" fill="#48A73D"/>
</svg>
