<svg width="90" height="92" viewBox="0 0 90 92" fill="none" xmlns="http://www.w3.org/2000/svg">
<rect width="90" height="92" rx="11" fill="#FFDDFD"/>
<path fill-rule="evenodd" clip-rule="evenodd" d="M65.4873 27.1293C65.3537 27.231 65.3443 27.5919 65.3443 32.6442V38.05L63.3626 38.0539C61.3291 38.0578 60.5115 38.1418 58.8886 38.5136C57.1572 38.9102 54.0517 40.3426 53.4135 41.0394C53.3911 41.0638 53.1704 41.2467 52.9232 41.4456C50.5777 43.3335 48.9248 46.1179 48.2212 49.3657C47.7761 51.4212 47.9123 54.939 48.5136 56.9116C49.9428 61.6007 53.063 64.4665 57.9284 65.5597C58.1419 65.6076 58.4728 65.6827 58.6639 65.7264C60.6894 66.1902 64.7669 66.0508 67.8775 65.4112C68.855 65.21 71.0592 64.5543 71.7591 64.2561C71.8489 64.2178 72.1307 64.1061 72.3852 64.0078C73.0153 63.7644 73.0792 63.6004 72.9368 62.593C72.8514 61.9893 72.8236 58.2803 72.8018 44.5704C72.7764 28.8173 72.7625 27.2952 72.642 27.1615C72.4673 26.968 65.739 26.9376 65.4873 27.1293ZM16.3545 30.0808C16.1453 30.2344 16.1353 30.2129 17.4579 32.4285C17.7409 32.9021 18.035 33.4004 18.1119 33.5358C18.3752 33.9996 19.8471 36.4883 20.1644 37.0058C20.3389 37.2905 20.4815 37.5357 20.4815 37.5511C20.4815 37.5665 20.632 37.8277 20.8159 38.1314C20.9997 38.4353 21.2151 38.799 21.2945 38.9395C21.5146 39.3295 22.7389 41.4011 23.231 42.216C23.4717 42.6144 23.6684 42.9532 23.6684 42.9687C23.6684 42.9843 23.8523 43.2978 24.077 43.6653C24.3017 44.0327 24.4856 44.3452 24.4856 44.3594C24.4856 44.3735 24.7798 44.8733 25.1393 45.4697C25.4989 46.0662 25.7931 46.5647 25.7931 46.5776C25.7931 46.5908 25.9422 46.8477 26.1244 47.1487L26.4558 47.696L25.9814 48.483C25.7206 48.9158 25.4292 49.4022 25.334 49.564C25.2388 49.7256 24.9677 50.1716 24.7316 50.555C24.1951 51.4261 22.9599 53.4661 22.7701 53.7948C22.6919 53.9302 22.4341 54.3546 22.1973 54.7381C21.9605 55.1215 21.5556 55.7859 21.2976 56.2144C21.0396 56.643 20.5252 57.4919 20.1546 58.1009C19.7838 58.7099 19.3247 59.4666 19.1343 59.7823C18.9441 60.0981 18.4849 60.8548 18.1141 61.4638C16.1333 64.7163 15.9766 64.9952 16.0023 65.2187L16.0279 65.4418L19.9366 65.4631C24.3875 65.4873 24.1083 65.5297 24.4887 64.7708C24.5978 64.5533 24.782 64.2094 24.8981 64.0064C25.3299 63.2524 26.4619 61.1638 27.0987 59.9464C27.3819 59.405 27.7138 58.7776 27.8366 58.552C28.0526 58.1546 28.358 57.5866 28.9273 56.522C29.2802 55.8626 30.5801 53.3661 30.8996 52.7343C31.2144 52.1122 31.2683 52.103 31.5476 52.6248C31.6747 52.8623 31.8896 53.2597 32.025 53.5078C32.1607 53.7559 32.3811 54.1619 32.5153 54.41C32.6494 54.6581 32.8232 54.9718 32.9017 55.1072C32.9801 55.2425 33.1652 55.5747 33.3133 55.8454C33.4612 56.116 33.8457 56.8173 34.1675 57.4037C35.2504 59.3769 35.8367 60.4883 37.1534 63.0632C38.2764 65.2595 38.1812 65.1059 38.5475 65.3126C38.9128 65.5186 46.9861 65.5857 47.1867 65.3843C47.3519 65.2185 47.297 64.9055 47.0255 64.4665C46.7425 64.0089 45.3542 61.7277 44.9985 61.1357C44.8765 60.9327 44.2696 59.9361 43.6499 58.9211C43.0301 57.9061 42.4593 56.9649 42.3817 56.8296C42.3039 56.6943 42.0466 56.2698 41.8101 55.8864C41.5737 55.5029 41.0227 54.5986 40.586 53.8769C40.1492 53.1551 39.5422 52.1585 39.2372 51.6623C38.9324 51.1661 38.6098 50.6309 38.5205 50.473C38.4315 50.3151 38.2934 50.0937 38.2141 49.9809C38.1348 49.8681 37.9967 49.6466 37.9073 49.4888C37.818 49.3309 37.4827 48.7725 37.1624 48.2478C36.441 47.0669 36.4116 47.3111 37.4905 45.5343C37.9912 44.7094 38.4646 43.9237 38.5422 43.7883C38.62 43.653 38.9786 43.0585 39.3391 42.4672C39.6997 41.876 40.3806 40.7503 40.8526 39.9656C41.786 38.4131 42.3041 37.555 43.8924 34.9301C44.4659 33.9828 44.9991 33.0969 45.0773 32.9616C45.1558 32.8263 45.4136 32.4018 45.6504 32.0184C45.8872 31.6349 46.154 31.192 46.2432 31.0341C46.3325 30.8762 46.4563 30.6743 46.5182 30.5853C46.9325 29.9906 46.7899 29.9677 42.6934 29.9691C38.4664 29.9705 38.8366 29.8881 38.2793 30.9521C38.0548 31.3807 37.659 32.1373 37.3998 32.6335C36.9718 33.4523 36.2635 34.7784 35.5593 36.0784C35.3091 36.5408 35.1477 36.8434 34.2269 38.58C34.0236 38.9635 33.4208 40.1446 32.8874 41.2047C32.354 42.2648 31.8851 43.1432 31.8457 43.157C31.8062 43.1705 31.545 42.7276 31.2651 42.1727C30.9852 41.6177 30.6555 40.9791 30.5327 40.7536C30.4097 40.528 30.1686 40.0851 29.997 39.7693C29.8254 39.4535 29.4115 38.7154 29.0771 38.1289C28.7427 37.5425 28.3404 36.8227 28.1831 36.5295C28.0258 36.2363 27.8466 35.9146 27.7847 35.8145C27.6756 35.6381 27.5555 35.4226 27.0403 34.479C26.7584 33.9629 25.9095 32.2663 25.354 31.1086C24.769 29.8893 25.2942 30.0128 20.5742 29.9855C17.1347 29.9656 16.4916 29.9802 16.3545 30.0808ZM64.854 44.4336L65.3034 44.5388V51.9145V59.2902L64.8948 59.3981C63.363 59.8026 60.4382 59.4916 59.11 58.7825C57.5511 57.9504 56.2926 56.2987 55.9347 54.615C54.9702 50.0783 56.1948 46.9156 59.5863 45.1829C60.0823 44.9294 60.6339 44.6852 60.812 44.6401C61.8412 44.3793 62.1342 44.3422 63.2196 44.3356C63.9224 44.3313 64.5873 44.3713 64.854 44.4336Z" fill="#FA63F2"/>
</svg>
