<svg width="90" height="92" viewBox="0 0 90 92" fill="none" xmlns="http://www.w3.org/2000/svg">
<rect width="90" height="92" rx="11" fill="#FFD7D2"/>
<g clip-path="url(#clip0_203_27)">
<path d="M36.2516 71C40.8047 71 44.5 67.2667 44.5 62.6667V54.3334H36.2516C31.6986 54.3334 28.0033 58.0667 28.0033 62.6667C28.0033 67.2667 31.6986 71 36.2516 71Z" fill="#FF7262"/>
<path d="M28.0033 46C28.0033 41.4 31.6986 37.6666 36.2516 37.6666H44.5V54.3333H36.2516C31.6986 54.3333 28.0033 50.5999 28.0033 46Z" fill="#FF7262"/>
<path d="M28.0024 29.3333C28.0024 24.7333 31.6977 21 36.2508 21H44.4991V37.6667H36.2508C31.6977 37.6667 28.0024 33.9333 28.0024 29.3333Z" fill="#FF7262"/>
<path d="M44.5 21H52.7484C57.3014 21 60.9967 24.7333 60.9967 29.3333C60.9967 33.9333 57.3014 37.6667 52.7484 37.6667H44.5V21Z" fill="#FF7262"/>
<path d="M60.9967 46C60.9967 50.5999 57.3014 54.3333 52.7484 54.3333C48.1953 54.3333 44.5 50.5999 44.5 46C44.5 41.4 48.1953 37.6666 52.7484 37.6666C57.3014 37.6666 60.9967 41.4 60.9967 46Z" fill="#FF7262"/>
</g>
<defs>
<clipPath id="clip0_203_27">
<rect width="33" height="50" fill="white" transform="translate(28 21)"/>
</clipPath>
</defs>
</svg>
