<svg width="90" height="92" viewBox="0 0 90 92" fill="none" xmlns="http://www.w3.org/2000/svg">
<rect width="90" height="92" rx="11" fill="#FFCDCD"/>
<path d="M41.4295 23.0154C41.4295 23.0341 41.6984 23.5564 42.0352 24.1965C42.3642 24.826 42.607 25.367 42.5705 25.3938C42.5339 25.4206 41.6018 25.7848 40.5027 26.1839C39.3957 26.591 38.5054 26.9392 38.5211 26.9553C38.5367 26.9713 39.7925 27.1053 41.3068 27.2472C43.1318 27.424 44.0926 27.5499 44.1605 27.6195C44.2205 27.6811 44.6356 28.3748 45.0951 29.1462L45.9175 30.5657L46.0638 30.2095C46.1421 30.022 46.3927 29.4006 46.6251 28.8435L47.0324 27.8231L49.2281 27.5847C50.4291 27.4508 51.5021 27.3463 51.6144 27.3463C51.7188 27.3383 51.805 27.3115 51.805 27.266C51.805 27.2311 50.993 26.8856 49.9878 26.5026C48.9931 26.1223 48.1707 25.7929 48.1707 25.7848C48.1707 25.7768 48.3874 25.2357 48.6459 24.5876C48.9043 23.9394 49.1028 23.3903 49.0871 23.3716C49.0688 23.3448 48.2229 23.61 47.2204 23.9474L45.3875 24.5608L43.4425 23.7707C41.5313 22.9993 41.4269 22.9645 41.4269 23.0154H41.4295ZM53.5125 29.7649C51.1862 30.7131 49.2751 31.5032 49.2568 31.5219C49.2385 31.5407 50.9695 32.2585 53.1052 33.129L56.9797 34.6985L57.3948 34.5298C61.7105 32.8076 65.6372 31.2032 65.6189 31.1845C65.5589 31.1121 57.9222 28.0454 57.836 28.0454C57.776 28.0534 55.8309 28.8248 53.5125 29.7676V29.7649ZM31.182 28.8435C28.9497 29.0819 27.0752 29.7488 26.2789 30.5925C25.7332 31.1684 25.647 31.6585 25.9838 32.2505C26.4851 33.137 28.1299 33.8843 30.404 34.2646C31.4248 34.4414 34.4247 34.4146 35.4638 34.2298C37.8945 33.7959 39.4688 32.9977 39.8395 31.9933C39.9779 31.621 39.9779 31.5675 39.8395 31.2032C39.4766 30.2283 37.9284 29.4194 35.6361 29.0123C34.4769 28.8087 32.3151 28.7284 31.182 28.8435ZM72.7465 31.6023C72.6342 31.7523 72.2191 32.0898 71.8222 32.3656C70.6448 33.145 69.1226 33.8548 59.6792 38.0251C53.0373 40.9526 51.3429 41.7239 49.0427 42.8596C46.4919 44.1104 45.4372 44.4559 44.1552 44.4559C43.0039 44.4559 42.3224 44.2523 40.1763 43.2747C39.32 42.8837 35.8162 41.3757 32.3934 39.9133C17.4229 33.5254 17.1462 33.3914 16.342 32.5049L16.0052 32.1246V38.167L16.3864 38.5393C16.7493 38.9036 17.9868 39.6669 18.4281 39.7982C18.5482 39.833 19.3628 40.1785 20.2452 40.5695C21.1277 40.9606 25.4251 42.806 29.8009 44.6782C37.0407 47.7744 38.6908 48.4842 41.1554 49.593C42.4608 50.1877 43.1866 50.3376 44.4163 50.2948C45.3171 50.26 45.5834 50.2064 46.3718 49.9305C46.8809 49.7537 47.7634 49.3707 48.3352 49.0788C50.2124 48.1119 52.4864 47.0834 61.5408 43.0819C70.0599 39.3107 71.1669 38.7884 72.0912 38.1322C73.0415 37.4412 72.9997 37.6099 72.9997 34.2459C72.9997 32.6388 72.9919 31.3264 72.9736 31.3264C72.9553 31.3264 72.8614 31.4496 72.7491 31.6023H72.7465ZM42.9255 35.5422C39.4401 36.0913 36.5525 36.5627 36.5003 36.5814C36.4219 36.6082 45.1839 40.3874 45.5546 40.4838C45.6408 40.5106 49.5597 34.7253 49.5597 34.5753C49.5597 34.4949 49.5675 34.4869 42.9255 35.5422ZM72.7961 41.5231C72.7178 41.657 72.3549 41.9837 71.9998 42.2409C70.8667 43.039 69.1644 43.8372 58.8098 48.4065C52.8519 51.0421 50.9826 51.8858 49.2098 52.7723C46.3379 54.1999 45.646 54.4302 44.1082 54.4222C42.9151 54.4142 42.1788 54.2186 40.5967 53.4821C39.0745 52.7643 37.3697 52.0277 30.5293 49.1163C18.6291 44.0515 17.2532 43.4194 16.4151 42.5864L16 42.1873V48.1306L16.4673 48.5833C17.2297 49.3118 17.1514 49.2743 29.9236 54.7329C34.61 56.7283 39.0302 58.6353 39.7403 58.9647C41.6253 59.8352 42.171 60.0388 42.9151 60.1968C44.6539 60.5611 45.941 60.2664 48.7607 58.8576C50.5936 57.9443 52.8336 56.9238 58.2563 54.5293C68.5639 49.968 71.1069 48.7976 71.8588 48.2833C72.1277 48.0878 72.4906 47.7771 72.6708 47.5735L72.9919 47.2093V44.2363C72.9919 42.6024 72.9841 41.2632 72.9658 41.2632C72.958 41.2632 72.8796 41.3784 72.7935 41.5204L72.7961 41.5231ZM72.7021 51.2537C72.0181 52.1322 70.6526 52.8071 60.0239 57.4997C53.0869 60.5691 50.9773 61.528 48.6955 62.6449C46.2987 63.8153 45.5129 64.0644 44.1291 64.0644C43.1866 64.0644 42.2258 63.8341 41.1632 63.3546C38.6803 62.2377 37.0459 61.528 29.7983 58.4317C21.5559 54.9097 18.9189 53.766 18.0364 53.3133C17.214 52.8875 16.376 52.2848 16.1854 51.9741L16.0026 51.6902V54.7168C16.0026 58.1853 15.9426 57.9282 16.8511 58.5576C17.8537 59.2487 19.3419 59.9236 29.2369 64.1367C36.1556 67.083 38.6464 68.157 39.8735 68.7248C42.3825 69.8792 43.0482 70.064 44.4476 69.9837C45.727 69.9221 46.5676 69.6381 48.7816 68.5561C51.0896 67.4204 52.7945 66.641 60.3267 63.3118C70.791 58.6889 71.9241 58.1318 72.7204 57.189L72.9971 56.8702V53.9079C72.9971 52.2741 72.9893 50.9349 72.9788 50.9349C72.9606 50.9349 72.8405 51.0769 72.7021 51.2537Z" fill="#E34B3A"/>
</svg>
