<svg width="90" height="92" viewBox="0 0 90 92" fill="none" xmlns="http://www.w3.org/2000/svg">
<rect width="90" height="92" rx="11" fill="#FFDFDF"/>
<path fill-rule="evenodd" clip-rule="evenodd" d="M50.2819 19.1149C50.2819 19.2014 50.3715 19.7215 50.4813 20.2709L50.6809 21.2698H52.3226H53.9645L53.8942 20.8763C53.8556 20.6598 53.787 20.1921 53.7418 19.8369C53.6964 19.4816 53.5986 19.1727 53.5243 19.1504C53.4498 19.1281 52.6899 19.0757 51.8355 19.0338C50.6038 18.9734 50.282 18.9902 50.2819 19.1149ZM42.5752 20.8292C41.9217 21.1826 41.3538 21.5049 41.3131 21.5454C41.2418 21.6162 42.909 23.7153 43.0935 23.7871C43.1611 23.8134 45.3352 22.6299 45.6384 22.4017C45.7046 22.352 45.1784 21.6988 44.4117 20.8795L43.7633 20.1864L42.5752 20.8292ZM51.805 21.4663C46.9272 22.2023 43.5057 23.9478 40.1509 27.412C38.0788 29.5517 36.7633 31.5481 34.5042 35.9803C31.7163 41.4501 30.3473 45.2117 29.3315 50.1926C28.6357 53.6037 28.2635 57.2598 28.4148 59.1964L28.4976 60.2558H38.7936C48.5515 60.2558 49.085 60.2448 49.0016 60.0439C47.5996 56.665 46.4035 52.2237 45.8145 48.2089C45.5124 46.1484 45.5094 41.2906 45.8094 39.6731C46.1687 37.7362 46.6023 36.4132 47.4159 34.7696C49.343 30.8771 52.5408 28.0439 56.5298 26.6944C57.4755 26.3745 57.886 26.3056 59.1198 26.2604C61.264 26.1814 62.7885 26.6338 64.3652 27.8168L65.1064 28.3729L65.5532 27.6872C65.799 27.3101 66 26.9696 66 26.9308C66 26.8919 65.575 26.508 65.0557 26.0777C62.4291 23.9011 59.2509 22.3104 56.2816 21.6862C55.3655 21.4937 52.5428 21.3549 51.805 21.4663ZM60.9071 22.1326L60.9434 22.8743L61.9182 23.4024C62.4543 23.6927 62.9496 23.931 63.0189 23.9319C63.0883 23.9327 63.2392 23.7749 63.3545 23.5811L63.5639 23.2288L62.2949 22.3098C61.5969 21.8045 60.9909 21.3909 60.9484 21.3909C60.9058 21.3909 60.8873 21.7247 60.9071 22.1326ZM34.0304 28.0655C33.4353 28.7279 32.9693 29.2873 32.9947 29.3089C33.0201 29.3305 33.6652 29.7604 34.4282 30.2643L35.8156 31.1806L36.8347 29.9674C37.3952 29.3002 37.8538 28.713 37.8538 28.6626C37.8538 28.5855 35.3819 26.9381 35.1798 26.8805C35.1426 26.87 34.6254 27.4032 34.0304 28.0655ZM60.517 27.9138C60.517 28.5898 60.4682 28.5614 61.8952 28.7179L62.6033 28.7957L62.5653 28.2788C62.5283 27.7739 62.5143 27.7585 61.9625 27.6193C61.6518 27.5408 61.1994 27.4398 60.9573 27.3946L60.517 27.3125V27.9138ZM54.7567 28.0761L53.8093 28.3208L54.3158 29.2447C54.5944 29.753 54.8395 30.1884 54.8603 30.2124C54.9221 30.2832 56.3742 29.1142 56.3742 28.9937C56.3742 28.9332 56.313 28.6415 56.2379 28.3458C56.081 27.7261 56.0989 27.7294 54.7567 28.0761ZM49.8787 31.4703L49.0601 32.227L50.1887 33.4764C51.4645 34.889 51.2833 34.8751 52.0105 33.6162L52.3379 33.0496L51.5517 31.8816C51.1194 31.2392 50.7504 30.7136 50.7315 30.7136C50.7126 30.7136 50.3288 31.0542 49.8787 31.4703ZM27.7023 38.6569C27.3796 39.5623 27.1329 40.3186 27.154 40.3375C27.2312 40.4066 30.8119 41.5044 30.8387 41.4671C30.9259 41.3459 31.9035 38.4436 31.8668 38.4148C31.817 38.3756 28.3657 37.0091 28.3189 37.0101C28.3025 37.0103 28.0249 37.7514 27.7023 38.6569ZM47.1154 38.0965C46.8466 38.6278 46.6266 39.087 46.6266 39.117C46.6266 39.2713 49.2156 41.3841 49.2931 41.2932C49.3987 41.1691 49.964 38.8261 49.8992 38.781C49.8751 38.7645 49.3796 38.3863 48.7979 37.9407C48.2161 37.4951 47.7096 37.1306 47.6722 37.1306C47.6348 37.1306 47.3841 37.5652 47.1154 38.0965ZM46.5041 44.5464C46.5037 44.7627 46.469 45.3783 46.4269 45.914L46.3507 46.8883L47.9076 47.5485C48.764 47.9118 49.5114 48.227 49.5687 48.2492C49.6909 48.2966 49.7016 47.5628 49.5953 46.4438L49.5196 45.6474L48.0905 44.9001C47.3045 44.4891 46.626 44.1529 46.583 44.1529C46.54 44.1529 46.5044 44.33 46.5041 44.5464ZM24.3931 50.2488C24.2511 51.0903 23.9598 53.7544 24.0046 53.7991C24.0311 53.8253 24.7317 53.9267 25.5616 54.0243C26.3915 54.122 27.2391 54.2299 27.4453 54.264L27.82 54.3262L28.1652 52.326C28.355 51.2258 28.4813 50.2969 28.4459 50.2617C28.4104 50.2264 27.7026 50.1452 26.8731 50.0813C26.0435 50.0172 25.1606 49.9429 24.911 49.916C24.4834 49.8701 24.4536 49.8891 24.3931 50.2488ZM47.4831 53.8086C47.49 53.9874 48.1998 56.4109 48.2637 56.4745C48.3451 56.5555 52.2299 56.7865 52.3022 56.7147C52.3312 56.6859 52.0433 55.9999 51.6625 55.1901L50.9703 53.7178H49.2249C48.265 53.7178 47.4811 53.7586 47.4831 53.8086ZM26.4004 67.3992V72H27.5579H28.7154V70.8221V69.6441L29.784 70.701L30.8526 71.7579H32.6759H34.4993L33.0583 70.3223L31.6174 68.8868L31.9842 68.8139C33.7542 68.4621 34.4141 65.0021 32.9613 63.6903C32.1885 62.9924 31.2069 62.7983 28.4493 62.7983H26.4004V67.3992ZM37.8538 62.8739C36.7917 63.0797 36.1511 63.6028 35.9116 64.4598C35.8364 64.729 35.7835 66.3244 35.7832 68.3375L35.7824 71.7579H37.0009H38.2193V70.9709V70.1839H39.3769H40.5344V70.9709V71.7579H41.7528H42.9713V68.1823C42.9713 65.3988 42.9336 64.5172 42.8014 64.2028C42.6096 63.7467 42.021 63.2663 41.3873 63.0485C40.9451 62.8964 38.3887 62.7701 37.8538 62.8739ZM45.2863 67.2176V71.6368H46.5657H47.8451V67.2176V62.7983H46.5657H45.2863V67.2176ZM59.5422 62.9655C58.7159 63.1466 58.4374 63.295 58.0369 63.768C57.6392 64.2377 57.4724 64.8372 57.4716 65.7998C57.4707 66.6839 57.7423 67.3182 58.3331 67.8122C58.9285 68.3099 59.4996 68.4942 60.7966 68.6068C62.2405 68.7321 62.6032 68.9411 62.1532 69.3883C61.9934 69.547 61.6007 69.5785 59.7772 69.5785H57.5927V70.7437V71.909L60.121 71.8456C61.56 71.8096 62.8586 71.719 63.1352 71.6353C63.4025 71.5546 63.7952 71.305 64.008 71.0809C64.9139 70.1265 64.8616 67.616 63.9168 66.698C63.4395 66.2344 62.7668 66.0674 61.3768 66.0674H60.2733V65.7041V65.3409H62.2228H64.1723V64.147V62.9532L63.5326 62.8768C62.5154 62.7554 60.2736 62.8052 59.5422 62.9655ZM50.282 67.3386V71.7579H53.3281H56.3742V70.5471V69.3364H54.6075H52.8407V66.1279V62.9194H51.5614H50.282V67.3386ZM40.4125 66.4306V67.6413H39.3769H38.3412V66.4306V65.2198H39.3769H40.4125V66.4306ZM30.7868 66.1279V66.9149H29.812H28.8373V66.1279V65.3409H29.812H30.7868V66.1279Z" fill="#F96C6C"/>
</svg>
