<svg width="90" height="92" viewBox="0 0 90 92" fill="none" xmlns="http://www.w3.org/2000/svg">
<rect width="90" height="92" rx="11" fill="white"/>
<path d="M30.4892 23.219C29.8768 23.5689 30.0081 24.5093 30.8172 25.3403L31.517 26.0839L30.4454 27.0243C29.3957 27.9646 29.3738 27.9865 29.6581 28.6645C29.8987 29.2768 29.8987 29.408 29.5051 29.9329C29.2645 30.239 28.7396 30.589 28.3241 30.6983C27.9086 30.8077 27.4494 30.9826 27.3181 31.1138C26.9682 31.3981 26.9464 32.2948 27.2744 32.5135C27.4056 32.6009 27.1651 32.8634 26.6621 33.1477C25.6779 33.7381 25.0219 34.766 25 35.7282C25 36.1219 25.2406 37.0623 25.5467 37.8495C25.8748 38.6368 26.4871 40.6925 26.9245 42.4421C27.8649 46.2473 28.4772 47.9094 30.0081 51.0148C35.1692 61.359 42.1674 66.6513 52.5115 68.0291C57.6289 68.707 64.8895 68.4884 68.0387 67.5261C68.8916 67.2855 70.16 67.045 70.8817 67.0231C71.6033 67.0012 72.6312 66.8482 73.1779 66.7169C73.7247 66.5639 74.5338 66.3452 74.9931 66.2358C75.9116 66.0171 76.1303 65.6891 75.9335 64.8581C75.8022 64.3332 75.7148 64.3113 74.1402 64.3113C73.2435 64.3113 72.3032 64.2238 72.0845 64.0926C71.822 63.9395 71.494 63.9833 71.0129 64.2238C70.488 64.4863 70.1818 64.5081 69.5258 64.3332C69.0665 64.202 68.1917 64.0926 67.5794 64.0926C66.9671 64.0926 66.3985 64.027 66.3329 63.9614C66.2454 63.8739 66.4859 63.4366 66.8359 62.9992C67.2076 62.5399 67.4919 62.0151 67.4919 61.8401C67.4919 61.0091 66.3985 61.1184 65.305 62.0369C64.7801 62.4962 64.6927 62.6711 64.9114 62.8242C65.1301 62.9992 65.1082 63.021 64.8458 62.9336C64.6271 62.868 64.2772 63.0429 63.971 63.3491C63.3805 63.9833 63.0087 63.9395 59.8377 62.9554C55.8575 61.7089 52.2272 59.3907 49.8216 56.5915C46.7818 53.0705 45.9289 51.6928 44.9885 48.8935C44.1137 46.2692 43.7201 43.8417 43.3483 38.7243C42.9328 33.1477 43.0421 32.9071 45.907 33.9131C47.2848 34.3942 47.5691 34.4379 48.0064 34.1536C48.8156 33.6288 47.1317 32.3822 44.2012 31.3763C43.2389 31.0482 42.1892 30.589 41.8612 30.3703C41.5331 30.1516 40.9208 29.8235 40.5053 29.6486C40.0679 29.4518 39.718 29.1893 39.718 29.0144C39.718 28.6863 38.8214 28.2271 38.1215 28.2052C37.8591 28.2052 37.2905 28.0959 36.875 27.9428C36.2408 27.7241 36.0877 27.5491 36.0002 26.9149L35.8909 26.1495L34.36 26.0402L32.8292 25.9308L32.8948 24.7936C32.9385 23.8314 32.8729 23.6127 32.4574 23.3284C31.9107 22.9347 31.0359 22.891 30.4892 23.219ZM32.02 23.4596C32.523 23.9626 32.3043 24.225 31.4077 24.2031C30.4236 24.1813 30.4017 24.1594 30.9047 23.5908C31.3202 23.1315 31.6482 23.0878 32.02 23.4596ZM34.0976 26.8493C33.9445 26.8931 33.6821 26.8931 33.5509 26.8493C33.3978 26.7837 33.5071 26.74 33.8133 26.74C34.1195 26.74 34.2288 26.7837 34.0976 26.8493ZM35.2785 28.4676C35.6722 28.6207 35.7159 28.7519 35.5847 29.2331C35.4972 29.5611 35.3223 29.8673 35.2129 29.911C34.863 30.0204 33.8133 28.8832 33.8133 28.402C33.8133 27.9646 33.9664 27.9646 35.2785 28.4676ZM33.704 29.3205C33.7914 29.4518 33.4853 29.5392 32.9604 29.5392C32.5011 29.5392 31.9107 29.583 31.692 29.6486C31.4733 29.7142 31.6045 29.6267 31.9544 29.4518C32.7198 29.0581 33.5071 29.0144 33.704 29.3205ZM37.6623 30.5233C37.9029 31.2669 37.9029 31.2888 37.5092 30.9389C37.1156 30.589 37.0937 30.589 37.0937 31.1576C37.0937 32.0761 36.5032 32.1198 35.7815 31.2669C35.3004 30.7202 35.1473 30.6327 35.1255 30.8951C35.1255 31.2232 34.9724 31.2669 34.1413 31.1576C33.6165 31.0701 32.7198 31.1357 32.1512 31.2669C31.6045 31.42 31.1015 31.4856 31.0578 31.4419C30.9703 31.3544 36.5251 29.8235 37.0937 29.7798C37.2905 29.7579 37.5311 30.0641 37.6623 30.5233ZM43.7419 31.6387C44.0481 31.9449 44.0481 32.0323 43.7638 32.6009C43.567 32.9727 43.1515 33.3882 42.8234 33.5413C41.9049 34.0224 39.4993 34.5473 37.3343 34.766C36.1533 34.8972 35.0161 35.1596 34.4256 35.4439C33.9226 35.7064 33.026 36.1 32.4574 36.3406C31.5608 36.6905 31.4077 36.6905 31.4077 36.428C31.4077 36.0563 31.3202 36.0344 30.3361 36.2312C29.9643 36.3187 29.6581 36.5155 29.6581 36.6686C29.6581 36.9966 29.0677 37.0623 28.4772 36.8436C27.9086 36.6249 27.6024 35.9032 27.9305 35.5314C28.2585 35.1159 28.0617 34.9191 27.4712 35.1159C26.9464 35.2908 26.5965 36.0344 26.5965 37.0404L26.5746 37.7402L26.2684 37.1935C25.6342 36.0781 26.0935 35.1378 27.5368 34.591C28.5209 34.2192 29.0021 34.2849 29.0021 34.8097C29.0021 35.3783 30.358 35.9907 30.9266 35.6845C31.2765 35.4877 31.2765 35.4658 30.9047 35.3127C30.6641 35.2252 30.5548 35.0284 30.6423 34.7879C30.7297 34.5473 30.6204 34.3505 30.3798 34.263C30.0518 34.1318 30.0299 34.0662 30.3142 33.935C30.4892 33.8256 31.0359 33.6725 31.517 33.585C31.9982 33.5194 33.529 33.1039 34.9286 32.6884C36.3064 32.2729 37.9247 31.8792 38.4715 31.8136C39.4337 31.6824 39.4993 31.7043 39.4993 32.1417C39.4993 32.6884 40.0679 32.9946 40.4178 32.6447C40.6146 32.4478 40.5709 32.2729 40.2866 31.9667C39.9148 31.5512 39.9148 31.5293 40.7459 31.4419C42.6703 31.245 43.4139 31.2888 43.7419 31.6387ZM29.0021 32.1635C28.8271 32.2729 28.5866 32.3822 28.4553 32.3822C28.346 32.3822 28.3897 32.2729 28.5647 32.1635C28.7396 32.0542 29.0021 31.9449 29.1114 31.9449C29.2426 31.9449 29.177 32.0542 29.0021 32.1635ZM47.5909 33.4976C47.5909 33.6288 47.4378 33.6288 47.1535 33.4757C46.913 33.3445 46.7162 33.1477 46.7162 33.0164C46.7162 32.8852 46.8692 32.8852 47.1535 33.0383C47.3941 33.1695 47.5909 33.3664 47.5909 33.4976ZM42.6703 35.5095C42.736 35.9032 42.8016 36.7998 42.8016 37.5215C42.8016 41.0206 42.8672 42.2234 43.064 42.2234C43.1733 42.2234 43.2171 42.5952 43.1515 43.0982C43.0859 43.5793 43.1296 44.0385 43.2389 44.1041C43.5451 44.2791 43.4795 44.8477 43.1296 44.8477C42.8016 44.8477 42.561 45.307 42.561 45.8974C42.561 46.1817 42.6485 46.138 42.9109 45.7662C43.3483 45.132 43.567 45.2851 43.7419 46.4223C43.8294 46.9471 44.1356 48.1718 44.4418 49.1778C44.9447 50.8399 44.9666 50.993 44.6386 51.321C44.3105 51.649 44.3324 51.7146 44.9447 52.0864C45.3165 52.3051 45.6227 52.655 45.6227 52.83C45.6227 53.0268 45.732 53.1143 45.8414 53.0487C46.1913 52.83 46.6943 53.333 47.5472 54.6889C47.9627 55.3449 48.6844 56.3072 49.1655 56.8102C49.6248 57.335 49.9965 57.9255 49.9965 58.1442C49.9965 59.0408 52.3803 60.8122 54.4797 61.4683C54.9609 61.6214 55.7044 62.0588 56.1199 62.4743C56.9072 63.2179 57.8039 63.6552 58.5474 63.6552C58.788 63.6552 59.116 63.7865 59.291 63.9395C59.444 64.0926 60.122 64.3551 60.7999 64.5081C62.0902 64.7924 62.3527 65.0549 61.5435 65.2517C60.9312 65.4267 58.9848 64.9455 57.279 64.2238C55.7481 63.5896 54.261 63.4803 53.5394 64.0052C53.0145 64.3551 52.8833 64.1582 53.3425 63.6552C53.4737 63.4803 53.3425 63.5459 53.0364 63.8302C52.3365 64.4425 52.1616 64.4425 51.5055 63.7427C51.2212 63.4366 50.8276 63.2397 50.6307 63.2835C49.9965 63.4584 49.5592 63.0429 49.6466 62.3431C49.7341 61.6214 49.6685 61.5995 47.8534 61.3808C46.4537 61.2278 45.3821 60.1562 46.6287 60.1562C47.0442 60.1562 47.1754 60.2436 47.0661 60.4842C46.9348 60.856 47.7003 61.2496 48.5969 61.2496C49.3623 61.2496 49.253 60.9653 48.0283 59.7407C46.9786 58.6909 46.0819 58.1661 42.0143 56.3291C41.2926 56.001 40.8115 55.6948 40.9645 55.6292C41.0958 55.5855 41.7081 55.8042 42.3204 56.1322C43.2171 56.5915 43.5014 56.6571 43.7638 56.4384C44.3324 55.9573 43.4139 54.6014 42.3423 54.3608C42.0143 54.2952 41.5113 53.989 41.2488 53.7047L40.7459 53.1799L41.3363 52.9612C42.1236 52.655 42.058 52.0864 41.1176 51.0586C40.7021 50.5993 40.3959 50.3806 40.4616 50.5993C40.5272 50.8399 40.6365 51.2773 40.7021 51.5834L40.8115 52.1739L40.5272 51.5834C39.893 50.2494 38.8432 49.6371 38.8432 50.5774C38.8214 51.0148 38.7995 51.0367 38.6245 50.7087C38.4933 50.5118 38.2309 50.4025 37.9903 50.4681C37.5092 50.5993 37.378 50.4244 37.203 49.4184C37.1156 48.981 36.7438 48.3249 36.2627 47.8438L35.4535 47.0128L36.0877 47.2533C36.9625 47.5814 37.3124 47.2314 36.875 46.4442C36.3283 45.5038 35.9128 45.3726 35.3223 45.9193L34.7974 46.4004L34.7318 45.3944C34.6662 44.5415 34.6006 44.4103 34.36 44.629C34.1632 44.804 34.0976 45.1101 34.1851 45.5256C34.2944 46.0724 34.2507 46.1599 33.7914 46.1599C33.3103 46.1599 33.3322 46.2036 34.0976 46.9909C34.7318 47.647 34.8412 47.8875 34.6443 48.0843C34.1851 48.5436 33.857 48.3687 33.5946 47.5814C33.4634 47.1658 33.1354 46.641 32.8729 46.4442C32.5886 46.2036 32.4137 45.8537 32.4574 45.5913C32.5011 45.2851 32.3262 45.0008 31.9544 44.7602C31.4296 44.4103 31.4296 44.3666 31.7576 43.8636C32.1731 43.2294 32.8292 43.1419 33.1354 43.6886C33.2666 43.9511 33.2447 44.126 33.0041 44.301C32.6105 44.5853 32.9823 45.7225 33.4853 45.7225C33.7258 45.7225 33.8133 45.4819 33.8133 44.7602C33.8133 43.623 33.2447 42.792 32.4355 42.7701C32.1294 42.7483 31.7139 42.617 31.5389 42.464C31.1234 42.114 31.0796 41.5673 31.4733 41.5673C31.6264 41.5673 31.8451 41.3486 31.9544 41.0643C32.0856 40.78 32.4137 40.5613 32.7636 40.5176C33.7258 40.4082 33.9445 39.949 33.4853 38.943C33.026 37.937 33.1135 37.7621 34.1413 37.6965C35.0817 37.6527 35.7815 37.2809 35.7815 36.8654C35.7815 36.6467 36.0002 36.5374 36.4376 36.5374C36.7875 36.5374 37.1593 36.3843 37.2468 36.2094C37.3999 35.9469 37.5967 35.9251 38.1872 36.1C39.2369 36.4062 39.4774 36.3624 38.9744 35.9907C38.7339 35.8157 38.6027 35.6189 38.6683 35.5533C38.7339 35.4877 39.4337 35.2908 40.2647 35.1159C41.0739 34.9628 41.7737 34.766 41.8393 34.7004C42.1017 34.4379 42.561 34.8972 42.6703 35.5095ZM32.6105 38.7243C32.6105 38.9211 32.3699 39.0742 31.9544 39.0961C31.4077 39.1398 31.3639 39.118 31.7357 38.9649C32.1512 38.7681 32.1512 38.7681 31.6264 38.5275C31.1015 38.3088 31.1234 38.3088 31.8451 38.3525C32.3481 38.3744 32.6105 38.5056 32.6105 38.7243ZM30.1393 39.2054C29.9424 39.4023 29.8112 39.4023 29.6144 39.2054C29.4176 39.0086 29.4613 38.943 29.8768 38.943C30.2924 38.943 30.3361 39.0086 30.1393 39.2054ZM30.3142 41.3486C30.3142 41.6329 30.0737 41.6329 29.6581 41.3486C29.3957 41.1737 29.4176 41.1299 29.8331 41.1299C30.0955 41.1299 30.3142 41.2174 30.3142 41.3486ZM28.346 42.2453C28.346 42.3765 28.2585 42.3983 28.1273 42.3327C28.018 42.2671 27.9086 42.0922 27.9086 41.9828C27.9086 41.8516 28.018 41.8297 28.1273 41.8954C28.2585 41.961 28.346 42.1359 28.346 42.2453ZM30.0518 42.1797C30.0955 42.3327 30.0081 42.3983 29.7894 42.3109C29.5925 42.2453 29.4395 42.0703 29.4395 41.961C29.4395 41.6767 29.9424 41.8516 30.0518 42.1797ZM29.5488 45.8537C29.5925 46.2255 29.855 47.144 30.1611 47.8875C30.5548 48.8716 30.6204 49.1559 30.358 48.9591C30.0518 48.6967 28.5866 45.7662 28.1054 44.4103C27.9086 43.8855 27.9305 43.9073 28.4772 44.5197C28.8709 44.9789 29.0021 45.0445 28.8927 44.7384C28.5209 43.7105 28.5866 43.4918 29.0239 44.2791C29.2864 44.7602 29.5269 45.46 29.5488 45.8537ZM32.4355 46.7285C32.3699 46.7941 32.1731 46.8159 32.02 46.7503C31.8451 46.6847 31.9107 46.6191 32.1512 46.6191C32.3918 46.5972 32.523 46.6628 32.4355 46.7285ZM36.3064 48.478C36.372 48.6748 36.4376 49.0029 36.4376 49.1997C36.4376 49.4184 36.7438 49.9651 37.0937 50.4244C37.4655 50.8836 37.706 51.2991 37.6404 51.3647C37.4655 51.5397 34.4256 50.0526 34.0976 49.6589C33.6165 49.0685 33.7477 48.7186 34.4256 48.8716C36.2189 49.3309 36.2408 49.3309 36.0002 48.6967C35.8909 48.3905 35.869 48.1281 35.9784 48.1281C36.0877 48.1281 36.2408 48.2812 36.3064 48.478ZM30.5548 50.2057C30.8828 50.9492 31.517 51.9771 31.9544 52.5019C32.3918 53.0049 32.8292 53.6173 32.9385 53.8141C33.0479 54.0328 33.354 54.4483 33.6165 54.7326C33.8789 55.0169 34.2507 55.6948 34.4475 56.2416C34.6881 56.8539 35.0161 57.3132 35.3879 57.4881C35.7159 57.6412 36.1752 58.1005 36.4376 58.516C36.7 58.9315 37.0062 59.2814 37.1156 59.2814C37.2468 59.2814 37.5748 59.5657 37.881 59.9156C38.1653 60.2655 38.8651 60.8122 39.39 61.1403C39.9367 61.4465 40.3741 61.8401 40.3741 62.0151C40.3741 62.19 40.3303 62.3431 40.2647 62.3431C39.215 62.3431 35.1911 58.6035 34.1413 56.6352C33.7914 55.9791 32.8292 54.4264 31.9982 53.2236C30.5548 51.0586 29.177 48.3905 29.68 48.6967C29.8112 48.7842 30.2049 49.4621 30.5548 50.2057ZM38.4058 52.3707C39.1275 52.6332 39.1275 52.655 38.6901 52.8081C38.1653 52.9831 38.0122 53.3767 38.4715 53.3767C38.6683 53.3767 38.6683 53.4204 38.4496 53.5735C38.2309 53.7047 38.3184 53.9234 38.8432 54.492C39.4337 55.1481 40.2429 56.4384 40.046 56.4384C39.8711 56.4384 36.6563 54.6451 36.6563 54.5358C36.6563 54.492 36.875 54.492 37.1593 54.5795C37.6404 54.7107 37.6404 54.7107 37.203 54.3171C36.3501 53.5298 36.1752 53.0049 36.5907 52.5019C37.0281 51.9989 37.3343 51.9771 38.4058 52.3707ZM41.8831 57.2257C42.1892 57.4881 41.4675 57.2476 41.1176 56.9633C40.724 56.6571 40.724 56.6571 41.2488 56.8977C41.555 57.0289 41.8393 57.182 41.8831 57.2257ZM40.2429 57.7506C41.7518 58.2317 42.0143 58.4941 41.1832 58.7128C40.1991 58.9534 38.1653 58.1005 38.4933 57.5756C38.6901 57.2476 38.5371 57.2257 40.2429 57.7506ZM43.1296 58.2317C43.8513 58.5597 44.07 58.7347 43.8075 58.8003C43.4795 58.8659 41.9049 58.0786 41.9049 57.838C41.9049 57.6849 42.0143 57.7287 43.1296 58.2317ZM44.4418 57.9474C44.5511 58.0567 44.8354 58.1879 45.076 58.2535C45.4915 58.341 45.4915 58.3629 45.0541 58.3848C44.7917 58.3848 44.2449 58.2535 43.8513 58.0786C43.1515 57.7943 43.1515 57.7724 43.6763 57.7506C43.9825 57.7506 44.3105 57.838 44.4418 57.9474ZM44.3105 59.5001C44.4855 59.6094 44.5511 59.7188 44.4199 59.7188C44.3105 59.7188 44.0481 59.6094 43.8732 59.5001C43.6982 59.3907 43.6545 59.2814 43.7638 59.2814C43.895 59.2814 44.1356 59.3907 44.3105 59.5001ZM44.3105 60.7029C44.6604 60.8997 44.7261 61.0091 44.5074 61.0309C44.3324 61.0309 43.9825 60.8779 43.7419 60.7029C43.2171 60.3093 43.5889 60.2874 44.3105 60.7029ZM46.1694 62.3431C46.235 62.4524 46.2132 62.5618 46.0819 62.5618C45.9726 62.5618 45.7976 62.4524 45.732 62.3431C45.6664 62.2119 45.6883 62.1244 45.8195 62.1244C45.9289 62.1244 46.1038 62.2119 46.1694 62.3431ZM49.0562 62.693C48.9906 62.7586 48.7937 62.7805 48.6406 62.7149C48.4657 62.6493 48.5313 62.5837 48.7719 62.5837C49.0124 62.5618 49.1436 62.6274 49.0562 62.693ZM44.5511 64.5519C45.5352 65.033 46.4756 65.3829 46.6505 65.3173C46.8255 65.2517 46.913 65.2736 46.8474 65.361C46.6724 65.6453 50.1278 66.87 51.7461 67.1325C52.5334 67.2418 54.9827 67.4168 57.2134 67.5042C61.456 67.6573 62.0684 67.9854 58.1975 68.0072C55.5513 68.0291 49.3623 67.1543 47.3722 66.4982C45.7539 65.9515 42.3423 64.3988 42.3423 64.202C42.3423 64.1364 42.8453 64.3332 43.4576 64.6394C44.7479 65.3173 45.6227 65.6453 45.6227 65.5141C45.6227 65.4485 44.8573 65.0111 43.9388 64.5519C42.9984 64.0708 42.3642 63.6771 42.5173 63.6552C42.6703 63.6552 43.5889 64.0489 44.5511 64.5519ZM44.7479 63.8739C44.7479 63.9833 44.6604 64.0926 44.5292 64.0926C44.4199 64.0926 44.3105 63.9833 44.3105 63.8739C44.3105 63.7427 44.4199 63.6552 44.5292 63.6552C44.6604 63.6552 44.7479 63.7427 44.7479 63.8739ZM56.0762 64.8799C56.0324 65.1861 55.8138 65.2954 55.2889 65.2954C54.436 65.2954 54.4141 65.1424 55.1795 64.53C55.8138 64.0489 56.2074 64.202 56.0762 64.8799ZM67.3607 64.9018C68.5854 65.1424 67.2732 65.3392 65.2175 65.2298C63.4461 65.1424 63.293 65.0986 63.6867 64.8143C64.1022 64.5081 65.5237 64.5519 67.3607 64.9018ZM56.9291 65.1205C56.7323 65.3173 56.5136 65.4267 56.4261 65.361C56.2074 65.1424 56.5573 64.7487 56.951 64.7487C57.279 64.7487 57.279 64.7706 56.9291 65.1205ZM74.1183 65.1205C73.834 65.1642 73.3529 65.1642 73.0248 65.1205C72.6749 65.0767 72.9155 65.033 73.506 65.033C74.1183 65.033 74.3807 65.0767 74.1183 65.1205ZM58.3069 65.4048C58.3069 65.5141 58.1975 65.6235 58.0663 65.6235C57.9569 65.6235 57.9132 65.5141 57.9788 65.4048C58.0444 65.2736 58.1538 65.1861 58.2194 65.1861C58.2631 65.1861 58.3069 65.2736 58.3069 65.4048ZM57.104 65.6235C57.0384 65.7328 56.8416 65.8422 56.7104 65.8422C56.5573 65.8422 56.5792 65.7547 56.776 65.6235C57.1915 65.361 57.279 65.361 57.104 65.6235ZM50.1059 66.0609C51.7023 66.4108 52.2928 66.8263 50.8713 66.6076C50.3246 66.5201 49.4935 66.2577 49.0124 66.039C48.5313 65.7984 48.2907 65.6453 48.4657 65.711C48.6406 65.7547 49.3842 65.9078 50.1059 66.0609ZM60.2751 65.9296C60.2751 65.9734 60.122 66.0827 59.9252 66.1483C59.7502 66.2139 59.6627 66.1921 59.7284 66.0609C59.8596 65.8422 60.2751 65.7547 60.2751 65.9296Z" fill="#535F6A"/>
<path d="M41.0301 32.2729C40.6146 32.7759 40.8552 32.8415 41.4457 32.3603C41.7956 32.076 41.8393 31.9448 41.6206 31.9448C41.4457 31.9448 41.1832 32.0979 41.0301 32.2729Z" fill="#535F6A"/>
<path d="M34.885 33.257L34.3601 33.6943L35.1474 33.3663C35.5848 33.2132 36.1315 33.1039 36.3939 33.1695C36.6345 33.2351 37.0282 33.1913 37.2468 33.0601C37.553 32.8852 37.4218 32.8414 36.5252 32.8196C35.6941 32.8196 35.2567 32.9508 34.885 33.257Z" fill="#535F6A"/>
<path d="M33.2667 33.9349C33.048 34.263 33.2667 34.3942 33.8571 34.3067L34.3601 34.2411L33.879 33.9568C33.551 33.7818 33.3541 33.76 33.2667 33.9349Z" fill="#535F6A"/>
<path d="M32.2824 34.5692C31.9107 34.7878 31.9325 34.8316 32.8948 35.3127C33.4634 35.597 33.5946 35.6189 33.5946 35.3783C33.5946 35.094 32.9385 34.3505 32.6979 34.3505C32.6542 34.3505 32.4574 34.4379 32.2824 34.5692Z" fill="#535F6A"/>
<path d="M41.3801 37.2372C41.1833 38.0027 41.227 39.118 41.4457 39.2711C41.7519 39.446 42.3423 38.4838 42.3205 37.8496C42.2767 37.3466 42.2767 37.3466 42.1893 37.784C42.1455 38.0683 42.0143 38.287 41.905 38.287C41.7956 38.287 41.7956 38.0027 41.905 37.6528C42.0799 37.0404 42.0143 36.7561 41.6644 36.7561C41.5988 36.7561 41.4676 36.9748 41.3801 37.2372Z" fill="#535F6A"/>
<path d="M35.519 39.5116C35.6065 39.9927 36.3063 40.6925 36.6781 40.6925C37.028 40.6925 36.5687 39.8396 36.022 39.4241L35.4097 38.9867L35.519 39.5116Z" fill="#535F6A"/>
<path d="M36.6562 39.1617C36.6562 39.271 36.7656 39.3804 36.8968 39.3804C37.0062 39.3804 37.0499 39.271 36.9843 39.1617C36.9187 39.0305 36.8093 38.943 36.7437 38.943C36.7 38.943 36.6562 39.0305 36.6562 39.1617Z" fill="#535F6A"/>
<path d="M34.5132 41.1299C34.5788 41.5017 36.0877 42.3108 36.4814 42.1796C36.6345 42.114 36.3502 41.8078 35.8909 41.4798C35.213 40.9987 35.1474 40.8893 35.5629 41.0205C36.8969 41.3704 36.9844 41.3704 36.4158 41.0424C35.6722 40.605 34.4257 40.6706 34.5132 41.1299Z" fill="#535F6A"/>
<path d="M34.2069 42.0047C34.9286 42.6608 35.3441 42.8358 35.3441 42.464C35.3441 42.2453 33.9882 41.3487 33.6821 41.3487C33.5727 41.3487 33.8133 41.6548 34.2069 42.0047Z" fill="#535F6A"/>
<path d="M33.6602 42.2671C33.8132 42.7264 33.5946 42.792 33.2009 42.3983C33.0478 42.2452 32.9385 42.2234 32.9385 42.3546C32.9385 42.4858 33.2446 42.8576 33.5946 43.2075C34.0757 43.6667 34.3162 43.7761 34.4912 43.6011C34.8411 43.2512 34.6443 42.6389 34.0319 42.2452C33.5508 41.9172 33.5071 41.9172 33.6602 42.2671Z" fill="#535F6A"/>
<path d="M35.5629 43.3168C35.5629 43.4262 35.6722 43.5355 35.8034 43.5355C35.9128 43.5355 35.9565 43.4262 35.8909 43.3168C35.8253 43.1856 35.716 43.0981 35.6503 43.0981C35.6066 43.0981 35.5629 43.1856 35.5629 43.3168Z" fill="#535F6A"/>
<path d="M40.5273 43.4481C40.0461 43.9511 40.6147 46.3785 41.2271 46.3785C41.4895 46.3785 41.6863 45.5256 41.4458 45.3726C41.3364 45.3069 41.3145 45.0226 41.3802 44.7165C41.4676 44.3884 41.4239 44.1916 41.2708 44.1916C41.1177 44.1916 40.9428 43.9948 40.8553 43.7542C40.7678 43.4918 40.6147 43.3606 40.5273 43.4481Z" fill="#535F6A"/>
<path d="M42.1455 43.6668C42.1455 43.9074 42.2111 43.973 42.2767 43.798C42.3423 43.6449 42.3205 43.4481 42.2549 43.3825C42.1893 43.295 42.1237 43.4262 42.1455 43.6668Z" fill="#535F6A"/>
<path d="M42.5829 43.8854C42.5829 44.126 42.6485 44.1916 42.7141 44.0166C42.7797 43.8635 42.7579 43.6667 42.6922 43.6011C42.6266 43.5136 42.561 43.6449 42.5829 43.8854Z" fill="#535F6A"/>
<path d="M36.4376 43.9073C36.4376 44.0604 36.6344 44.7165 36.8969 45.3726C37.2905 46.4661 37.3999 46.5754 37.9685 46.5317C38.2965 46.5098 38.5371 46.4442 38.4933 46.4004C38.4496 46.3567 38.5152 46.1818 38.6464 46.0287C38.8214 45.8318 38.6683 45.5257 38.0559 44.8477C37.1593 43.8636 36.9625 43.8417 37.2905 44.7165C37.6186 45.5475 37.3999 45.4163 36.8969 44.4541C36.6563 44.0167 36.4595 43.7543 36.4376 43.9073Z" fill="#535F6A"/>
<path d="M36.0002 45.0446C36.0002 45.1758 36.1096 45.3289 36.2189 45.3945C36.3502 45.4601 36.4376 45.3726 36.4376 45.1977C36.4376 45.0008 36.3502 44.8477 36.2189 44.8477C36.1096 44.8477 36.0002 44.9352 36.0002 45.0446Z" fill="#535F6A"/>
<path d="M43.8732 50.1401C43.8732 50.2931 43.9825 50.5774 44.0919 50.7524C44.2668 51.0148 44.3106 50.9492 44.3106 50.4681C44.3106 50.1401 44.2231 49.8776 44.0919 49.8776C43.9825 49.8776 43.8732 50.0088 43.8732 50.1401Z" fill="#535F6A"/>
<path d="M46.3881 54.6889C46.4537 54.7982 46.5631 54.9076 46.6287 54.9076C46.6724 54.9076 46.7162 54.7982 46.7162 54.6889C46.7162 54.5577 46.6068 54.4702 46.4756 54.4702C46.3663 54.4702 46.3225 54.5577 46.3881 54.6889Z" fill="#535F6A"/>
<path d="M47.5909 56.2852C47.5909 56.6133 48.2689 57.7505 48.4657 57.7505C48.5969 57.7505 48.6844 57.663 48.6844 57.5537C48.6844 57.2912 47.6128 56.0447 47.5909 56.2852Z" fill="#535F6A"/>
</svg>
