<svg width="90" height="92" viewBox="0 0 90 92" fill="none" xmlns="http://www.w3.org/2000/svg">
<rect width="90" height="92" rx="11" fill="#DDEFFF"/>
<g clip-path="url(#clip0_203_61)">
<path d="M23.9346 21.0996C22.1814 21.3785 20.8268 22.5439 20.2391 24.2871C20.0598 24.815 20.0498 25.582 20.0498 46.5C20.0498 67.418 20.0598 68.185 20.2391 68.7129C20.7271 70.1672 21.7133 71.1732 23.1676 71.7311L23.7354 71.9502H45.5H67.2646L67.8324 71.7311C69.2867 71.1732 70.2729 70.1672 70.7609 68.7129C70.9402 68.185 70.9502 67.418 70.9502 46.5C70.9502 25.582 70.9402 24.815 70.7609 24.2871C70.2729 22.8328 69.2867 21.8268 67.8324 21.2689L67.2646 21.0498L45.8486 21.0398C34.0748 21.0299 24.2135 21.0598 23.9346 21.0996ZM32.7002 26.7275C34.7621 27.1658 36.5053 28.899 36.9236 30.941C37.7006 34.6863 34.3139 38.1527 30.6084 37.4057C28.6162 36.9973 27.0723 35.6625 26.4148 33.76C26.1061 32.8734 26.0662 31.4889 26.3252 30.5924C26.7436 29.1182 27.8193 27.8432 29.2039 27.1758C30.4391 26.5781 31.4152 26.4586 32.7002 26.7275ZM58.8477 39.6568C60.5311 40.0951 61.5969 40.6928 62.6627 41.7984C64.3162 43.4918 65.1828 45.7729 65.5314 49.3389C65.6211 50.2453 65.6609 52.8551 65.6709 58.0547C65.6709 65.0473 65.6609 65.4955 65.4916 65.7545C65.392 65.9139 65.1729 66.123 64.9936 66.2227C64.6947 66.4119 64.4656 66.4219 61.3578 66.4219C57.742 66.4219 57.6723 66.4119 57.2639 65.8441C57.0746 65.5652 57.0646 65.3859 57.0248 58.2439C56.9949 52.0383 56.965 50.833 56.8355 50.2852C56.457 48.7512 55.8594 47.7551 54.9629 47.2172C54.1859 46.759 53.7576 46.6494 52.6221 46.6594C51.3172 46.6594 50.7096 46.8885 49.843 47.7053C49.1258 48.3727 48.6178 49.2891 48.2592 50.5641C48.05 51.3111 48.04 51.5303 47.9902 58.4531C47.9404 65.107 47.9305 65.5951 47.7611 65.8441C47.3826 66.392 47.2033 66.4219 43.7369 66.4219C40.1908 66.4219 40.0713 66.402 39.7027 65.7146C39.5334 65.3959 39.5234 64.7982 39.5234 53.0941C39.5234 39.4676 39.4836 40.3342 40.1609 39.9158C40.4498 39.7365 40.7188 39.7266 43.7568 39.7266C46.8447 39.7266 47.0639 39.7365 47.3627 39.9258C47.8807 40.2346 47.9902 40.5633 47.9902 41.8383L48.0002 42.9639L48.2193 42.665C48.9564 41.649 50.2314 40.6131 51.2973 40.1449C52.7018 39.5373 53.9967 39.3281 56.1582 39.368C57.6225 39.3979 58.0508 39.4477 58.8477 39.6568ZM35.1506 39.9557C35.3398 40.0752 35.5689 40.3342 35.6686 40.5234C35.8279 40.8521 35.8379 41.6092 35.818 53.1938C35.7881 65.4756 35.7881 65.5154 35.5789 65.7943C35.1307 66.402 35.0012 66.4219 31.5746 66.4219C28.2078 66.4219 28.1779 66.4219 27.6699 65.874L27.4209 65.6051L27.391 53.1539C27.3711 41.141 27.3711 40.6828 27.5504 40.4039C27.66 40.2445 27.8691 40.0254 28.0285 39.9158C28.2975 39.7365 28.5365 39.7266 31.5646 39.7266C34.7721 39.7266 34.8119 39.7266 35.1506 39.9557Z" fill="#5389B8"/>
</g>
<defs>
<clipPath id="clip0_203_61">
<rect width="51" height="51" fill="white" transform="translate(20 21)"/>
</clipPath>
</defs>
</svg>
